<svg xmlns="http://www.w3.org/2000/svg" xmlns:xlink="http://www.w3.org/1999/xlink" width="1000pt" height="1000pt" viewBox="0 0 1000 1000" version="1.1">
<g id="surface155">
<path style="fill:none;stroke-width:2;stroke-linecap:butt;stroke-linejoin:miter;stroke:rgb(0%,60%,93.333333%);stroke-opacity:1;stroke-dasharray:3,6;stroke-miterlimit:10;" d="M 30 50 L 900 650 " transform="matrix(1,0,0,1,0.5,0.5)"/>
<path style="fill:none;stroke-width:2;stroke-linecap:butt;stroke-linejoin:miter;stroke:rgb(0%,60%,93.333333%);stroke-opacity:1;stroke-dasharray:3,6;stroke-miterlimit:10;" d="M 250 580 L 900 580 " transform="matrix(1,0,0,1,0.5,0.5)"/>
<path style="fill:none;stroke-width:2;stroke-linecap:butt;stroke-linejoin:miter;stroke:rgb(0%,60%,93.333333%);stroke-opacity:1;stroke-dasharray:3,6;stroke-miterlimit:10;" d="M 580 200 L 580 1000 " transform="matrix(1,0,0,1,0.5,0.5)"/>
<path style="fill:none;stroke-width:2;stroke-linecap:butt;stroke-linejoin:miter;stroke:rgb(0%,60%,93.333333%);stroke-opacity:1;stroke-dasharray:3,6;stroke-miterlimit:10;" d="M 120 220 C 106.667969 153.332031 116.667969 80 150 0 " transform="matrix(1,0,0,1,0.5,0.5)"/>
<path style="fill:none;stroke-width:2;stroke-linecap:butt;stroke-linejoin:miter;stroke:rgb(0%,60%,93.333333%);stroke-opacity:1;stroke-dasharray:3,6;stroke-miterlimit:10;" d="M 0 170 C 66.667969 136.667969 140 120 220 120 " transform="matrix(1,0,0,1,0.5,0.5)"/>
<path style="fill:none;stroke-width:2;stroke-linecap:butt;stroke-linejoin:miter;stroke:rgb(0%,60%,93.333333%);stroke-opacity:1;stroke-dasharray:3,6;stroke-miterlimit:10;" d="M 550 300 C 616.667969 233.332031 683.332031 166.667969 750 100 " transform="matrix(1,0,0,1,0.5,0.5)"/>
<path style="fill:none;stroke-width:2;stroke-linecap:butt;stroke-linejoin:miter;stroke:rgb(0%,60%,93.333333%);stroke-opacity:1;stroke-dasharray:3,6;stroke-miterlimit:10;" d="M 500 1000 C 566.667969 933.332031 633.332031 866.667969 700 800 " transform="matrix(1,0,0,1,0.5,0.5)"/>
<path style="fill:none;stroke-width:2;stroke-linecap:butt;stroke-linejoin:miter;stroke:rgb(0%,60%,93.333333%);stroke-opacity:1;stroke-dasharray:3,6;stroke-miterlimit:10;" d="M 650 300 C 716.667969 366.667969 783.332031 433.332031 850 500 " transform="matrix(1,0,0,1,0.5,0.5)"/>
<path style="fill:none;stroke-width:2;stroke-linecap:butt;stroke-linejoin:miter;stroke:rgb(0%,60%,93.333333%);stroke-opacity:1;stroke-dasharray:3,6;stroke-miterlimit:10;" d="M 700 800 C 766.667969 733.332031 833.332031 666.667969 900 600 " transform="matrix(1,0,0,1,0.5,0.5)"/>
<path style="fill-rule:nonzero;fill:rgb(0%,0%,0%);fill-opacity:1;stroke-width:2;stroke-linecap:butt;stroke-linejoin:miter;stroke:rgb(0%,60%,93.333333%);stroke-opacity:1;stroke-miterlimit:10;" d="M 265 600 C 265 608.285156 258.285156 615 250 615 C 241.714844 615 235 608.285156 235 600 C 235 591.714844 241.714844 585 250 585 C 258.285156 585 265 591.714844 265 600 Z M 265 600 " transform="matrix(1,0,0,1,0.5,0.5)"/>
<path style="fill-rule:nonzero;fill:rgb(0%,0%,0%);fill-opacity:1;stroke-width:2;stroke-linecap:butt;stroke-linejoin:miter;stroke:rgb(0%,60%,93.333333%);stroke-opacity:1;stroke-miterlimit:10;" d="M 985 600 C 985 608.285156 978.285156 615 970 615 C 961.714844 615 955 608.285156 955 600 C 955 591.714844 961.714844 585 970 585 C 978.285156 585 985 591.714844 985 600 Z M 985 600 " transform="matrix(1,0,0,1,0.5,0.5)"/>
<path style="fill-rule:nonzero;fill:rgb(0%,60%,93.333333%);fill-opacity:1;stroke-width:2;stroke-linecap:butt;stroke-linejoin:miter;stroke:rgb(0%,60%,93.333333%);stroke-opacity:1;stroke-miterlimit:10;" d="M 615 500 C 615 508.285156 608.285156 515 600 515 C 591.714844 515 585 508.285156 585 500 C 585 491.714844 591.714844 485 600 485 C 608.285156 485 615 491.714844 615 500 Z M 615 500 " transform="matrix(1,0,0,1,0.5,0.5)"/>
<path style="fill-rule:nonzero;fill:rgb(0%,0%,0%);fill-opacity:1;stroke-width:2;stroke-linecap:butt;stroke-linejoin:miter;stroke:rgb(0%,60%,93.333333%);stroke-opacity:1;stroke-miterlimit:10;" d="M 645 150 C 645 158.285156 638.285156 165 630 165 C 621.714844 165 615 158.285156 615 150 C 615 141.714844 621.714844 135 630 135 C 638.285156 135 645 141.714844 645 150 Z M 645 150 " transform="matrix(1,0,0,1,0.5,0.5)"/>
<path style="fill-rule:nonzero;fill:rgb(0%,0%,0%);fill-opacity:1;stroke-width:2;stroke-linecap:butt;stroke-linejoin:miter;stroke:rgb(0%,60%,93.333333%);stroke-opacity:1;stroke-miterlimit:10;" d="M 985 650 C 985 658.285156 978.285156 665 970 665 C 961.714844 665 955 658.285156 955 650 C 955 641.714844 961.714844 635 970 635 C 978.285156 635 985 641.714844 985 650 Z M 985 650 " transform="matrix(1,0,0,1,0.5,0.5)"/>
<path style="fill-rule:nonzero;fill:rgb(0%,0%,0%);fill-opacity:1;stroke-width:2;stroke-linecap:butt;stroke-linejoin:miter;stroke:rgb(0%,60%,93.333333%);stroke-opacity:1;stroke-miterlimit:10;" d="M 265 650 C 265 658.285156 258.285156 665 250 665 C 241.714844 665 235 658.285156 235 650 C 235 641.714844 241.714844 635 250 635 C 258.285156 635 265 641.714844 265 650 Z M 265 650 " transform="matrix(1,0,0,1,0.5,0.5)"/>
<path style="fill-rule:nonzero;fill:rgb(0%,0%,0%);fill-opacity:1;stroke-width:2;stroke-linecap:butt;stroke-linejoin:miter;stroke:rgb(0%,60%,93.333333%);stroke-opacity:1;stroke-miterlimit:10;" d="M 985 650 C 985 658.285156 978.285156 665 970 665 C 961.714844 665 955 658.285156 955 650 C 955 641.714844 961.714844 635 970 635 C 978.285156 635 985 641.714844 985 650 Z M 985 650 " transform="matrix(1,0,0,1,0.5,0.5)"/>
<path style="fill-rule:nonzero;fill:rgb(0%,0%,0%);fill-opacity:1;stroke-width:2;stroke-linecap:butt;stroke-linejoin:miter;stroke:rgb(0%,60%,93.333333%);stroke-opacity:1;stroke-miterlimit:10;" d="M 265 650 C 265 658.285156 258.285156 665 250 665 C 241.714844 665 235 658.285156 235 650 C 235 641.714844 241.714844 635 250 635 C 258.285156 635 265 641.714844 265 650 Z M 265 650 " transform="matrix(1,0,0,1,0.5,0.5)"/>
<path style="fill-rule:nonzero;fill:rgb(0%,0%,0%);fill-opacity:1;stroke-width:2;stroke-linecap:butt;stroke-linejoin:miter;stroke:rgb(0%,60%,93.333333%);stroke-opacity:1;stroke-miterlimit:10;" d="M 985 650 C 985 658.285156 978.285156 665 970 665 C 961.714844 665 955 658.285156 955 650 C 955 641.714844 961.714844 635 970 635 C 978.285156 635 985 641.714844 985 650 Z M 985 650 " transform="matrix(1,0,0,1,0.5,0.5)"/>
<path style="fill-rule:nonzero;fill:rgb(0%,0%,0%);fill-opacity:1;stroke-width:2;stroke-linecap:butt;stroke-linejoin:miter;stroke:rgb(0%,60%,93.333333%);stroke-opacity:1;stroke-miterlimit:10;" d="M 265 650 C 265 658.285156 258.285156 665 250 665 C 241.714844 665 235 658.285156 235 650 C 235 641.714844 241.714844 635 250 635 C 258.285156 635 265 641.714844 265 650 Z M 265 650 " transform="matrix(1,0,0,1,0.5,0.5)"/>
<path style="fill-rule:nonzero;fill:rgb(0%,0%,0%);fill-opacity:1;stroke-width:2;stroke-linecap:butt;stroke-linejoin:miter;stroke:rgb(0%,60%,93.333333%);stroke-opacity:1;stroke-miterlimit:10;" d="M 985 650 C 985 658.285156 978.285156 665 970 665 C 961.714844 665 955 658.285156 955 650 C 955 641.714844 961.714844 635 970 635 C 978.285156 635 985 641.714844 985 650 Z M 985 650 " transform="matrix(1,0,0,1,0.5,0.5)"/>
<path style="fill-rule:nonzero;fill:rgb(0%,0%,0%);fill-opacity:1;stroke-width:2;stroke-linecap:butt;stroke-linejoin:miter;stroke:rgb(0%,60%,93.333333%);stroke-opacity:1;stroke-miterlimit:10;" d="M 265 650 C 265 658.285156 258.285156 665 250 665 C 241.714844 665 235 658.285156 235 650 C 235 641.714844 241.714844 635 250 635 C 258.285156 635 265 641.714844 265 650 Z M 265 650 " transform="matrix(1,0,0,1,0.5,0.5)"/>
<path style="fill-rule:nonzero;fill:rgb(0%,0%,0%);fill-opacity:1;stroke-width:2;stroke-linecap:butt;stroke-linejoin:miter;stroke:rgb(0%,60%,93.333333%);stroke-opacity:1;stroke-miterlimit:10;" d="M 985 650 C 985 658.285156 978.285156 665 970 665 C 961.714844 665 955 658.285156 955 650 C 955 641.714844 961.714844 635 970 635 C 978.285156 635 985 641.714844 985 650 Z M 985 650 " transform="matrix(1,0,0,1,0.5,0.5)"/>
<path style="fill-rule:nonzero;fill:rgb(0%,0%,0%);fill-opacity:1;stroke-width:2;stroke-linecap:butt;stroke-linejoin:miter;stroke:rgb(0%,60%,93.333333%);stroke-opacity:1;stroke-miterlimit:10;" d="M 265 650 C 265 658.285156 258.285156 665 250 665 C 241.714844 665 235 658.285156 235 650 C 235 641.714844 241.714844 635 250 635 C 258.285156 635 265 641.714844 265 650 Z M 265 650 " transform="matrix(1,0,0,1,0.5,0.5)"/>
<path style="fill-rule:nonzero;fill:rgb(0%,0%,0%);fill-opacity:1;stroke-width:2;stroke-linecap:butt;stroke-linejoin:miter;stroke:rgb(0%,60%,93.333333%);stroke-opacity:1;stroke-miterlimit:10;" d="M 985 650 C 985 658.285156 978.285156 665 970 665 C 961.714844 665 955 658.285156 955 650 C 955 641.714844 961.714844 635 970 635 C 978.285156 635 985 641.714844 985 650 Z M 985 650 " transform="matrix(1,0,0,1,0.5,0.5)"/>
<path style="fill-rule:nonzero;fill:rgb(0%,0%,0%);fill-opacity:1;stroke-width:2;stroke-linecap:butt;stroke-linejoin:miter;stroke:rgb(0%,60%,93.333333%);stroke-opacity:1;stroke-miterlimit:10;" d="M 265 650 C 265 658.285156 258.285156 665 250 665 C 241.714844 665 235 658.285156 235 650 C 235 641.714844 241.714844 635 250 635 C 258.285156 635 265 641.714844 265 650 Z M 265 650 " transform="matrix(1,0,0,1,0.5,0.5)"/>
<path style="fill-rule:nonzero;fill:rgb(0%,0%,0%);fill-opacity:1;stroke-width:2;stroke-linecap:butt;stroke-linejoin:miter;stroke:rgb(0%,60%,93.333333%);stroke-opacity:1;stroke-miterlimit:10;" d="M 985 650 C 985 658.285156 978.285156 665 970 665 C 961.714844 665 955 658.285156 955 650 C 955 641.714844 961.714844 635 970 635 C 978.285156 635 985 641.714844 985 650 Z M 985 650 " transform="matrix(1,0,0,1,0.5,0.5)"/>
<path style="fill-rule:nonzero;fill:rgb(0%,0%,0%);fill-opacity:1;stroke-width:2;stroke-linecap:butt;stroke-linejoin:miter;stroke:rgb(0%,60%,93.333333%);stroke-opacity:1;stroke-miterlimit:10;" d="M 265 650 C 265 658.285156 258.285156 665 250 665 C 241.714844 665 235 658.285156 235 650 C 235 641.714844 241.714844 635 250 635 C 258.285156 635 265 641.714844 265 650 Z M 265 650 " transform="matrix(1,0,0,1,0.5,0.5)"/>
<path style="fill-rule:nonzero;fill:rgb(0%,0%,0%);fill-opacity:1;stroke-width:2;stroke-linecap:butt;stroke-linejoin:miter;stroke:rgb(0%,60%,93.333333%);stroke-opacity:1;stroke-miterlimit:10;" d="M 985 650 C 985 658.285156 978.285156 665 970 665 C 961.714844 665 955 658.285156 955 650 C 955 641.714844 961.714844 635 970 635 C 978.285156 635 985 641.714844 985 650 Z M 985 650 " transform="matrix(1,0,0,1,0.5,0.5)"/>
<path style="fill-rule:nonzero;fill:rgb(0%,0%,0%);fill-opacity:1;stroke-width:2;stroke-linecap:butt;stroke-linejoin:miter;stroke:rgb(0%,60%,93.333333%);stroke-opacity:1;stroke-miterlimit:10;" d="M 265 650 C 265 658.285156 258.285156 665 250 665 C 241.714844 665 235 658.285156 235 650 C 235 641.714844 241.714844 635 250 635 C 258.285156 635 265 641.714844 265 650 Z M 265 650 " transform="matrix(1,0,0,1,0.5,0.5)"/>
<path style="fill-rule:nonzero;fill:rgb(0%,0%,0%);fill-opacity:1;stroke-width:2;stroke-linecap:butt;stroke-linejoin:miter;stroke:rgb(0%,60%,93.333333%);stroke-opacity:1;stroke-miterlimit:10;" d="M 985 650 C 985 658.285156 978.285156 665 970 665 C 961.714844 665 955 658.285156 955 650 C 955 641.714844 961.714844 635 970 635 C 978.285156 635 985 641.714844 985 650 Z M 985 650 " transform="matrix(1,0,0,1,0.5,0.5)"/>
<path style="fill-rule:nonzero;fill:rgb(0%,0%,0%);fill-opacity:1;stroke-width:2;stroke-linecap:butt;stroke-linejoin:miter;stroke:rgb(0%,60%,93.333333%);stroke-opacity:1;stroke-miterlimit:10;" d="M 265 650 C 265 658.285156 258.285156 665 250 665 C 241.714844 665 235 658.285156 235 650 C 235 641.714844 241.714844 635 250 635 C 258.285156 635 265 641.714844 265 650 Z M 265 650 " transform="matrix(1,0,0,1,0.5,0.5)"/>
<path style="fill-rule:nonzero;fill:rgb(0%,0%,0%);fill-opacity:1;stroke-width:2;stroke-linecap:butt;stroke-linejoin:miter;stroke:rgb(0%,60%,93.333333%);stroke-opacity:1;stroke-miterlimit:10;" d="M 985 650 C 985 658.285156 978.285156 665 970 665 C 961.714844 665 955 658.285156 955 650 C 955 641.714844 961.714844 635 970 635 C 978.285156 635 985 641.714844 985 650 Z M 985 650 " transform="matrix(1,0,0,1,0.5,0.5)"/>
<path style="fill-rule:nonzero;fill:rgb(0%,0%,0%);fill-opacity:1;stroke-width:2;stroke-linecap:butt;stroke-linejoin:miter;stroke:rgb(0%,60%,93.333333%);stroke-opacity:1;stroke-miterlimit:10;" d="M 265 650 C 265 658.285156 258.285156 665 250 665 C 241.714844 665 235 658.285156 235 650 C 235 641.714844 241.714844 635 250 635 C 258.285156 635 265 641.714844 265 650 Z M 265 650 " transform="matrix(1,0,0,1,0.5,0.5)"/>
<path style="fill-rule:nonzero;fill:rgb(0%,0%,0%);fill-opacity:1;stroke-width:2;stroke-linecap:butt;stroke-linejoin:miter;stroke:rgb(0%,60%,93.333333%);stroke-opacity:1;stroke-miterlimit:10;" d="M 985 650 C 985 658.285156 978.285156 665 970 665 C 961.714844 665 955 658.285156 955 650 C 955 641.714844 961.714844 635 970 635 C 978.285156 635 985 641.714844 985 650 Z M 985 650 " transform="matrix(1,0,0,1,0.5,0.5)"/>
<path style="fill-rule:nonzero;fill:rgb(0%,0%,0%);fill-opacity:1;stroke-width:2;stroke-linecap:butt;stroke-linejoin:miter;stroke:rgb(0%,60%,93.333333%);stroke-opacity:1;stroke-miterlimit:10;" d="M 265 650 C 265 658.285156 258.285156 665 250 665 C 241.714844 665 235 658.285156 235 650 C 235 641.714844 241.714844 635 250 635 C 258.285156 635 265 641.714844 265 650 Z M 265 650 " transform="matrix(1,0,0,1,0.5,0.5)"/>
<path style="fill-rule:nonzero;fill:rgb(0%,0%,0%);fill-opacity:1;stroke-width:2;stroke-linecap:butt;stroke-linejoin:miter;stroke:rgb(0%,60%,93.333333%);stroke-opacity:1;stroke-miterlimit:10;" d="M 985 650 C 985 658.285156 978.285156 665 970 665 C 961.714844 665 955 658.285156 955 650 C 955 641.714844 961.714844 635 970 635 C 978.285156 635 985 641.714844 985 650 Z M 985 650 " transform="matrix(1,0,0,1,0.5,0.5)"/>
<path style="fill-rule:nonzero;fill:rgb(0%,0%,0%);fill-opacity:1;stroke-width:2;stroke-linecap:butt;stroke-linejoin:miter;stroke:rgb(0%,60%,93.333333%);stroke-opacity:1;stroke-miterlimit:10;" d="M 265 650 C 265 658.285156 258.285156 665 250 665 C 241.714844 665 235 658.285156 235 650 C 235 641.714844 241.714844 635 250 635 C 258.285156 635 265 641.714844 265 650 Z M 265 650 " transform="matrix(1,0,0,1,0.5,0.5)"/>
<path style="fill-rule:nonzero;fill:rgb(0%,0%,0%);fill-opacity:1;stroke-width:2;stroke-linecap:butt;stroke-linejoin:miter;stroke:rgb(0%,60%,93.333333%);stroke-opacity:1;stroke-miterlimit:10;" d="M 985 650 C 985 658.285156 978.285156 665 970 665 C 961.714844 665 955 658.285156 955 650 C 955 641.714844 961.714844 635 970 635 C 978.285156 635 985 641.714844 985 650 Z M 985 650 " transform="matrix(1,0,0,1,0.5,0.5)"/>
<path style="fill-rule:nonzero;fill:rgb(0%,0%,0%);fill-opacity:1;stroke-width:2;stroke-linecap:butt;stroke-linejoin:miter;stroke:rgb(0%,60%,93.333333%);stroke-opacity:1;stroke-miterlimit:10;" d="M 265 650 C 265 658.285156 258.285156 665 250 665 C 241.714844 665 235 658.285156 235 650 C 235 641.714844 241.714844 635 250 635 C 258.285156 635 265 641.714844 265 650 Z M 265 650 " transform="matrix(1,0,0,1,0.5,0.5)"/>
<path style="fill-rule:nonzero;fill:rgb(0%,0%,0%);fill-opacity:1;stroke-width:2;stroke-linecap:butt;stroke-linejoin:miter;stroke:rgb(0%,60%,93.333333%);stroke-opacity:1;stroke-miterlimit:10;" d="M 985 650 C 985 658.285156 978.285156 665 970 665 C 961.714844 665 955 658.285156 955 650 C 955 641.714844 961.714844 635 970 635 C 978.285156 635 985 641.714844 985 650 Z M 985 650 " transform="matrix(1,0,0,1,0.5,0.5)"/>
<path style="fill-rule:nonzero;fill:rgb(0%,0%,0%);fill-opacity:1;stroke-width:2;stroke-linecap:butt;stroke-linejoin:miter;stroke:rgb(0%,60%,93.333333%);stroke-opacity:1;stroke-miterlimit:10;" d="M 265 650 C 265 658.285156 258.285156 665 250 665 C 241.714844 665 235 658.285156 235 650 C 235 641.714844 241.714844 635 250 635 C 258.285156 635 265 641.714844 265 650 Z M 265 650 " transform="matrix(1,0,0,1,0.5,0.5)"/>
<path style="fill-rule:nonzero;fill:rgb(0%,0%,0%);fill-opacity:1;stroke-width:2;stroke-linecap:butt;stroke-linejoin:miter;stroke:rgb(0%,60%,93.333333%);stroke-opacity:1;stroke-miterlimit:10;" d="M 985 650 C 985 658.285156 978.285156 665 970 665 C 961.714844 665 955 658.285156 955 650 C 955 641.714844 961.714844 635 970 635 C 978.285156 635 985 641.714844 985 650 Z M 985 650 " transform="matrix(1,0,0,1,0.5,0.5)"/>
<path style="fill-rule:nonzero;fill:rgb(0%,0%,0%);fill-opacity:1;stroke-width:2;stroke-linecap:butt;stroke-linejoin:miter;stroke:rgb(0%,60%,93.333333%);stroke-opacity:1;stroke-miterlimit:10;" d="M 265 650 C 265 658.285156 258.285156 665 250 665 C 241.714844 665 235 658.285156 235 650 C 235 641.714844 241.714844 635 250 635 C 258.285156 635 265 641.714844 265 650 Z M 265 650 " transform="matrix(1,0,0,1,0.5,0.5)"/>
<path style="fill-rule:nonzero;fill:rgb(0%,0%,0%);fill-opacity:1;stroke-width:2;stroke-linecap:butt;stroke-linejoin:miter;stroke:rgb(0%,60%,93.333333%);stroke-opacity:1;stroke-miterlimit:10;" d="M 985 650 C 985 658.285156 978.285156 665 970 665 C 961.714844 665 955 658.285156 955 650 C 955 641.714844 961.714844 635 970 635 C 978.285156 635 985 641.714844 985 650 Z M 985 650 " transform="matrix(1,0,0,1,0.5,0.5)"/>
<path style="fill-rule:nonzero;fill:rgb(0%,0%,0%);fill-opacity:1;stroke-width:2;stroke-linecap:butt;stroke-linejoin:miter;stroke:rgb(0%,60%,93.333333%);stroke-opacity:1;stroke-miterlimit:10;" d="M 265 650 C 265 658.285156 258.285156 665 250 665 C 241.714844 665 235 658.285156 235 650 C 235 641.714844 241.714844 635 250 635 C 258.285156 635 265 641.714844 265 650 Z M 265 650 " transform="matrix(1,0,0,1,0.5,0.5)"/>
<path style="fill-rule:nonzero;fill:rgb(0%,0%,0%);fill-opacity:1;stroke-width:2;stroke-linecap:butt;stroke-linejoin:miter;stroke:rgb(0%,60%,93.333333%);stroke-opacity:1;stroke-miterlimit:10;" d="M 985 650 C 985 658.285156 978.285156 665 970 665 C 961.714844 665 955 658.285156 955 650 C 955 641.714844 961.714844 635 970 635 C 978.285156 635 985 641.714844 985 650 Z M 985 650 " transform="matrix(1,0,0,1,0.5,0.5)"/>
<path style="fill-rule:nonzero;fill:rgb(0%,0%,0%);fill-opacity:1;stroke-width:2;stroke-linecap:butt;stroke-linejoin:miter;stroke:rgb(0%,60%,93.333333%);stroke-opacity:1;stroke-miterlimit:10;" d="M 265 650 C 265 658.285156 258.285156 665 250 665 C 241.714844 665 235 658.285156 235 650 C 235 641.714844 241.714844 635 250 635 C 258.285156 635 265 641.714844 265 650 Z M 265 650 " transform="matrix(1,0,0,1,0.5,0.5)"/>
<path style="fill-rule:nonzero;fill:rgb(0%,0%,0%);fill-opacity:1;stroke-width:2;stroke-linecap:butt;stroke-linejoin:miter;stroke:rgb(0%,60%,93.333333%);stroke-opacity:1;stroke-miterlimit:10;" d="M 985 650 C 985 658.285156 978.285156 665 970 665 C 961.714844 665 955 658.285156 955 650 C 955 641.714844 961.714844 635 970 635 C 978.285156 635 985 641.714844 985 650 Z M 985 650 " transform="matrix(1,0,0,1,0.5,0.5)"/>
<path style="fill-rule:nonzero;fill:rgb(0%,0%,0%);fill-opacity:1;stroke-width:2;stroke-linecap:butt;stroke-linejoin:miter;stroke:rgb(0%,60%,93.333333%);stroke-opacity:1;stroke-miterlimit:10;" d="M 265 650 C 265 658.285156 258.285156 665 250 665 C 241.714844 665 235 658.285156 235 650 C 235 641.714844 241.714844 635 250 635 C 258.285156 635 265 641.714844 265 650 Z M 265 650 " transform="matrix(1,0,0,1,0.5,0.5)"/>
</g>
</svg>
