<svg xmlns="http://www.w3.org/2000/svg" xmlns:xlink="http://www.w3.org/1999/xlink" width="192.87264pt" height="95.466624pt" viewBox="0 0 192.87264 95.466624" version="1.1">
<g id="surface352">
<path style="fill:none;stroke-width:0.24;stroke-linecap:round;stroke-linejoin:round;stroke:rgb(0%,0%,0%);stroke-opacity:1;stroke-miterlimit:3;" d="M 0.00149237 348.000414 L 143.726535 348.000414 " transform="matrix(1.136583,0,0,1.136583,14.713148,-340.980643)"/>
<path style=" stroke:none;fill-rule:evenodd;fill:rgb(0%,0%,0%);fill-opacity:1;" d="M 181.636719 56.335938 L 178.070312 54.550781 L 181.636719 52.765625 L 181.636719 56.335938 "/>
<path style="fill:none;stroke-width:0.24;stroke-linecap:round;stroke-linejoin:round;stroke:rgb(0%,0%,0%);stroke-opacity:1;stroke-miterlimit:3;" d="M -0.000819073 348.000414 L -0.000819073 300.001563 " transform="matrix(1.136583,0,0,1.136583,129.422806,-340.980643)"/>
<path style="fill:none;stroke-width:0.24;stroke-linecap:round;stroke-linejoin:round;stroke:rgb(0%,0%,0%);stroke-opacity:1;stroke-miterlimit:3;" d="M -0.000819073 300.001563 L -76.999692 300.001563 " transform="matrix(1.136583,0,0,1.136583,129.422806,-340.980643)"/>
<path style=" stroke:none;fill-rule:evenodd;fill:rgb(0%,0%,0%);fill-opacity:1;" d="M 38.339844 -1.789062 L 41.90625 -0.00390625 L 38.339844 1.777344 L 38.339844 -1.789062 "/>
<path style="fill:none;stroke-width:0.24;stroke-linecap:round;stroke-linejoin:round;stroke:rgb(0%,0%,0%);stroke-opacity:1;stroke-miterlimit:3;" d="M -0.00124324 348.000414 L -0.00124324 300.001563 " transform="matrix(1.136583,0,0,1.136583,64.638132,-340.980643)"/>
<path style="fill:none;stroke-width:0.24;stroke-linecap:round;stroke-linejoin:round;stroke:rgb(0%,0%,0%);stroke-opacity:1;stroke-miterlimit:3;" d="M -0.00124324 300.001563 L 77.001066 300.001563 " transform="matrix(1.136583,0,0,1.136583,64.638132,-340.980643)"/>
<path style=" stroke:none;fill-rule:evenodd;fill:rgb(0%,0%,0%);fill-opacity:1;" d="M 155.722656 1.777344 L 152.15625 -0.00390625 L 155.722656 -1.789062 L 155.722656 1.777344 "/>
<path style="fill:none;stroke-width:0.24;stroke-linecap:round;stroke-linejoin:round;stroke:rgb(0%,0%,0%);stroke-opacity:1;stroke-miterlimit:3;" d="M -0.00124324 348.000414 L 26.99854 348.000414 " transform="matrix(1.136583,0,0,1.136583,64.638132,-340.980643)"/>
<path style=" stroke:none;fill-rule:evenodd;fill:rgb(0%,0%,0%);fill-opacity:1;" d="M 98.894531 56.335938 L 95.324219 54.550781 L 98.894531 52.765625 L 98.894531 56.335938 "/>
<path style="fill:none;stroke-width:0.24;stroke-linecap:round;stroke-linejoin:round;stroke:rgb(0%,0%,0%);stroke-opacity:1;stroke-miterlimit:3;" d="M -0.00134078 348.000414 L -0.00134078 331.998506 " transform="matrix(1.136583,0,0,1.136583,96.462461,-340.980643)"/>
<path style=" stroke:none;fill-rule:evenodd;fill:rgb(0%,0%,0%);fill-opacity:1;" d="M 98.246094 32.796875 L 96.460938 36.363281 L 94.679688 32.796875 L 98.246094 32.796875 "/>
<path style="fill-rule:evenodd;fill:rgb(0%,0%,0%);fill-opacity:1;stroke-width:0.229358;stroke-linecap:square;stroke-linejoin:round;stroke:rgb(0%,0%,0%);stroke-opacity:1;stroke-miterlimit:3;" d="M -0.00124324 348.000414 C -0.00124324 352.416748 -1.791835 356.001368 -3.998283 356.001368 C -6.208169 356.001368 -7.99876 352.416748 -7.99876 348.000414 C -7.99876 343.580643 -6.208169 339.99946 -3.998283 339.99946 C -1.791835 339.99946 -0.00124324 343.580643 -0.00124324 348.000414 Z M -0.00124324 348.000414 " transform="matrix(1.136583,0,0,1.136583,64.638132,-340.980643)"/>
<path style="fill-rule:evenodd;fill:rgb(0%,0%,0%);fill-opacity:1;stroke-width:0.229358;stroke-linecap:square;stroke-linejoin:round;stroke:rgb(0%,0%,0%);stroke-opacity:1;stroke-miterlimit:3;" d="M -0.00134078 348.000414 C -0.00134078 352.416748 -1.791932 356.001368 -3.998381 356.001368 C -6.208267 356.001368 -7.998858 352.416748 -7.998858 348.000414 C -7.998858 343.580643 -6.208267 339.99946 -3.998381 339.99946 C -1.791932 339.99946 -0.00134078 343.580643 -0.00134078 348.000414 Z M -0.00134078 348.000414 " transform="matrix(1.136583,0,0,1.136583,96.462461,-340.980643)"/>
<path style="fill-rule:evenodd;fill:rgb(0%,0%,0%);fill-opacity:1;stroke-width:0.229358;stroke-linecap:square;stroke-linejoin:round;stroke:rgb(0%,0%,0%);stroke-opacity:1;stroke-miterlimit:3;" d="M -0.00134078 348.000414 C -0.00134078 352.416748 -1.791932 356.001368 -3.998381 356.001368 C -6.208267 356.001368 -7.998858 352.416748 -7.998858 348.000414 C -7.998858 343.580643 -6.208267 339.99946 -3.998381 339.99946 C -1.791932 339.99946 -0.00134078 343.580643 -0.00134078 348.000414 Z M -0.00134078 348.000414 " transform="matrix(1.136583,0,0,1.136583,96.462461,-340.980643)"/>
<path style="fill-rule:evenodd;fill:rgb(0%,0%,0%);fill-opacity:1;stroke-width:0.229358;stroke-linecap:square;stroke-linejoin:round;stroke:rgb(0%,0%,0%);stroke-opacity:1;stroke-miterlimit:3;" d="M -0.00134078 348.000414 C -0.00134078 352.416748 -1.791932 356.001368 -3.998381 356.001368 C -6.208267 356.001368 -7.998858 352.416748 -7.998858 348.000414 C -7.998858 343.580643 -6.208267 339.99946 -3.998381 339.99946 C -1.791932 339.99946 -0.00134078 343.580643 -0.00134078 348.000414 Z M -0.00134078 348.000414 " transform="matrix(1.136583,0,0,1.136583,96.462461,-340.980643)"/>
<path style="fill-rule:evenodd;fill:rgb(0%,0%,0%);fill-opacity:1;stroke-width:0.229358;stroke-linecap:square;stroke-linejoin:round;stroke:rgb(0%,0%,0%);stroke-opacity:1;stroke-miterlimit:3;" d="M -0.00134078 348.000414 C -0.00134078 352.416748 -1.791932 356.001368 -3.998381 356.001368 C -6.208267 356.001368 -7.998858 352.416748 -7.998858 348.000414 C -7.998858 343.580643 -6.208267 339.99946 -3.998381 339.99946 C -1.791932 339.99946 -0.00134078 343.580643 -0.00134078 348.000414 Z M -0.00134078 348.000414 " transform="matrix(1.136583,0,0,1.136583,96.462461,-340.980643)"/>
<path style="fill-rule:evenodd;fill:rgb(0%,0%,0%);fill-opacity:1;stroke-width:0.229358;stroke-linecap:square;stroke-linejoin:round;stroke:rgb(0%,0%,0%);stroke-opacity:1;stroke-miterlimit:3;" d="M -0.00134078 348.000414 C -0.00134078 352.416748 -1.791932 356.001368 -3.998381 356.001368 C -6.208267 356.001368 -7.998858 352.416748 -7.998858 348.000414 C -7.998858 343.580643 -6.208267 339.99946 -3.998381 339.99946 C -1.791932 339.99946 -0.00134078 343.580643 -0.00134078 348.000414 Z M -0.00134078 348.000414 " transform="matrix(1.136583,0,0,1.136583,96.462461,-340.980643)"/>
<path style="fill-rule:evenodd;fill:rgb(0%,0%,0%);fill-opacity:1;stroke-width:0.229358;stroke-linecap:square;stroke-linejoin:round;stroke:rgb(0%,0%,0%);stroke-opacity:1;stroke-miterlimit:3;" d="M -0.00134078 348.000414 C -0.00134078 352.416748 -1.791932 356.001368 -3.998381 356.001368 C -6.208267 356.001368 -7.998858 352.416748 -7.998858 348.000414 C -7.998858 343.580643 -6.208267 339.99946 -3.998381 339.99946 C -1.791932 339.99946 -0.00134078 343.580643 -0.00134078 348.000414 Z M -0.00134078 348.000414 " transform="matrix(1.136583,0,0,1.136583,96.462461,-340.980643)"/>
<path style="fill-rule:evenodd;fill:rgb(0%,0%,0%);fill-opacity:1;stroke-width:0.229358;stroke-linecap:square;stroke-linejoin:round;stroke:rgb(0%,0%,0%);stroke-opacity:1;stroke-miterlimit:3;" d="M -0.00134078 348.000414 C -0.00134078 352.416748 -1.791932 356.001368 -3.998381 356.001368 C -6.208267 356.001368 -7.998858 352.416748 -7.998858 348.000414 C -7.998858 343.580643 -6.208267 339.99946 -3.998381 339.99946 C -1.791932 339.99946 -0.00134078 343.580643 -0.00134078 348.000414 Z M -0.00134078 348.000414 " transform="matrix(1.136583,0,0,1.136583,96.462461,-340.980643)"/>
<path style="fill-rule:evenodd;fill:rgb(0%,0%,0%);fill-opacity:1;stroke-width:0.229358;stroke-linecap:square;stroke-linejoin:round;stroke:rgb(0%,0%,0%);stroke-opacity:1;stroke-miterlimit:3;" d="M -0.00134078 348.000414 C -0.00134078 352.416748 -1.791932 356.001368 -3.998381 356.001368 C -6.208267 356.001368 -7.998858 352.416748 -7.998858 348.000414 C -7.998858 343.580643 -6.208267 339.99946 -3.998381 339.99946 C -1.791932 339.99946 -0.00134078 343.580643 -0.00134078 348.000414 Z M -0.00134078 348.000414 " transform="matrix(1.136583,0,0,1.136583,96.462461,-340.980643)"/>
<path style="fill-rule:evenodd;fill:rgb(0%,0%,0%);fill-opacity:1;stroke-width:0.229358;stroke-linecap:square;stroke-linejoin:round;stroke:rgb(0%,0%,0%);stroke-opacity:1;stroke-miterlimit:3;" d="M -0.00134078 348.000414 C -0.00134078 352.416748 -1.791932 356.001368 -3.998381 356.001368 C -6.208267 356.001368 -7.998858 352.416748 -7.998858 348.000414 C -7.998858 343.580643 -6.208267 339.99946 -3.998381 339.99946 C -1.791932 339.99946 -0.00134078 343.580643 -0.00134078 348.000414 Z M -0.00134078 348.000414 " transform="matrix(1.136583,0,0,1.136583,96.462461,-340.980643)"/>
<path style="fill-rule:evenodd;fill:rgb(0%,0%,0%);fill-opacity:1;stroke-width:0.229358;stroke-linecap:square;stroke-linejoin:round;stroke:rgb(0%,0%,0%);stroke-opacity:1;stroke-miterlimit:3;" d="M -0.00134078 348.000414 C -0.00134078 352.416748 -1.791932 356.001368 -3.998381 356.001368 C -6.208267 356.001368 -7.998858 352.416748 -7.998858 348.000414 C -7.998858 343.580643 -6.208267 339.99946 -3.998381 339.99946 C -1.791932 339.99946 -0.00134078 343.580643 -0.00134078 348.000414 Z M -0.00134078 348.000414 " transform="matrix(1.136583,0,0,1.136583,96.462461,-340.980643)"/>
<path style="fill-rule:evenodd;fill:rgb(0%,0%,0%);fill-opacity:1;stroke-width:0.229358;stroke-linecap:square;stroke-linejoin:round;stroke:rgb(0%,0%,0%);stroke-opacity:1;stroke-miterlimit:3;" d="M -0.00134078 348.000414 C -0.00134078 352.416748 -1.791932 356.001368 -3.998381 356.001368 C -6.208267 356.001368 -7.998858 352.416748 -7.998858 348.000414 C -7.998858 343.580643 -6.208267 339.99946 -3.998381 339.99946 C -1.791932 339.99946 -0.00134078 343.580643 -0.00134078 348.000414 Z M -0.00134078 348.000414 " transform="matrix(1.136583,0,0,1.136583,96.462461,-340.980643)"/>
<path style="fill-rule:evenodd;fill:rgb(0%,0%,0%);fill-opacity:1;stroke-width:0.229358;stroke-linecap:square;stroke-linejoin:round;stroke:rgb(0%,0%,0%);stroke-opacity:1;stroke-miterlimit:3;" d="M -0.00134078 348.000414 C -0.00134078 352.416748 -1.791932 356.001368 -3.998381 356.001368 C -6.208267 356.001368 -7.998858 352.416748 -7.998858 348.000414 C -7.998858 343.580643 -6.208267 339.99946 -3.998381 339.99946 C -1.791932 339.99946 -0.00134078 343.580643 -0.00134078 348.000414 Z M -0.00134078 348.000414 " transform="matrix(1.136583,0,0,1.136583,96.462461,-340.980643)"/>
<path style="fill-rule:evenodd;fill:rgb(0%,0%,0%);fill-opacity:1;stroke-width:0.229358;stroke-linecap:square;stroke-linejoin:round;stroke:rgb(0%,0%,0%);stroke-opacity:1;stroke-miterlimit:3;" d="M -0.00134078 348.000414 C -0.00134078 352.416748 -1.791932 356.001368 -3.998381 356.001368 C -6.208267 356.001368 -7.998858 352.416748 -7.998858 348.000414 C -7.998858 343.580643 -6.208267 339.99946 -3.998381 339.99946 C -1.791932 339.99946 -0.00134078 343.580643 -0.00134078 348.000414 Z M -0.00134078 348.000414 " transform="matrix(1.136583,0,0,1.136583,96.462461,-340.980643)"/>
<path style="fill-rule:evenodd;fill:rgb(0%,0%,0%);fill-opacity:1;stroke-width:0.229358;stroke-linecap:square;stroke-linejoin:round;stroke:rgb(0%,0%,0%);stroke-opacity:1;stroke-miterlimit:3;" d="M -0.00134078 348.000414 C -0.00134078 352.416748 -1.791932 356.001368 -3.998381 356.001368 C -6.208267 356.001368 -7.998858 352.416748 -7.998858 348.000414 C -7.998858 343.580643 -6.208267 339.99946 -3.998381 339.99946 C -1.791932 339.99946 -0.00134078 343.580643 -0.00134078 348.000414 Z M -0.00134078 348.000414 " transform="matrix(1.136583,0,0,1.136583,96.462461,-340.980643)"/>
<path style="fill-rule:evenodd;fill:rgb(0%,0%,0%);fill-opacity:1;stroke-width:0.229358;stroke-linecap:square;stroke-linejoin:round;stroke:rgb(0%,0%,0%);stroke-opacity:1;stroke-miterlimit:3;" d="M -0.00134078 348.000414 C -0.00134078 352.416748 -1.791932 356.001368 -3.998381 356.001368 C -6.208267 356.001368 -7.998858 352.416748 -7.998858 348.000414 C -7.998858 343.580643 -6.208267 339.99946 -3.998381 339.99946 C -1.791932 339.99946 -0.00134078 343.580643 -0.00134078 348.000414 Z M -0.00134078 348.000414 " transform="matrix(1.136583,0,0,1.136583,96.462461,-340.980643)"/>
<path style="fill-rule:evenodd;fill:rgb(0%,0%,0%);fill-opacity:1;stroke-width:0.229358;stroke-linecap:square;stroke-linejoin:round;stroke:rgb(0%,0%,0%);stroke-opacity:1;stroke-miterlimit:3;" d="M -0.00134078 348.000414 C -0.00134078 352.416748 -1.791932 356.001368 -3.998381 356.001368 C -6.208267 356.001368 -7.998858 352.416748 -7.998858 348.000414 C -7.998858 343.580643 -6.208267 339.99946 -3.998381 339.99946 C -1.791932 339.99946 -0.00134078 343.580643 -0.00134078 348.000414 Z M -0.00134078 348.000414 " transform="matrix(1.136583,0,0,1.136583,96.462461,-340.980643)"/>
<path style="fill-rule:evenodd;fill:rgb(0%,0%,0%);fill-opacity:1;stroke-width:0.229358;stroke-linecap:square;stroke-linejoin:round;stroke:rgb(0%,0%,0%);stroke-opacity:1;stroke-miterlimit:3;" d="M -0.00134078 348.000414 C -0.00134078 352.416748 -1.791932 356.001368 -3.998381 356.001368 C -6.208267 356.001368 -7.998858 352.416748 -7.998858 348.000414 C -7.998858 343.580643 -6.208267 339.99946 -3.998381 339.99946 C -1.791932 339.99946 -0.00134078 343.580643 -0.00134078 348.000414 Z M -0.00134078 348.000414 " transform="matrix(1.136583,0,0,1.136583,96.462461,-340.980643)"/>
<path style="fill-rule:evenodd;fill:rgb(0%,0%,0%);fill-opacity:1;stroke-width:0.229358;stroke-linecap:square;stroke-linejoin:round;stroke:rgb(0%,0%,0%);stroke-opacity:1;stroke-miterlimit:3;" d="M -0.00134078 348.000414 C -0.00134078 352.416748 -1.791932 356.001368 -3.998381 356.001368 C -6.208267 356.001368 -7.998858 352.416748 -7.998858 348.000414 C -7.998858 343.580643 -6.208267 339.99946 -3.998381 339.99946 C -1.791932 339.99946 -0.00134078 343.580643 -0.00134078 348.000414 Z M -0.00134078 348.000414 " transform="matrix(1.136583,0,0,1.136583,96.462461,-340.980643)"/>
<path style="fill-rule:evenodd;fill:rgb(0%,0%,0%);fill-opacity:1;stroke-width:0.229358;stroke-linecap:square;stroke-linejoin:round;stroke:rgb(0%,0%,0%);stroke-opacity:1;stroke-miterlimit:3;" d="M -0.00134078 348.000414 C -0.00134078 352.416748 -1.791932 356.001368 -3.998381 356.001368 C -6.208267 356.001368 -7.998858 352.416748 -7.998858 348.000414 C -7.998858 343.580643 -6.208267 339.99946 -3.998381 339.99946 C -1.791932 339.99946 -0.00134078 343.580643 -0.00134078 348.000414 Z M -0.00134078 348.000414 " transform="matrix(1.136583,0,0,1.136583,96.462461,-340.980643)"/>
<path style="fill-rule:evenodd;fill:rgb(0%,0%,0%);fill-opacity:1;stroke-width:0.229358;stroke-linecap:square;stroke-linejoin:round;stroke:rgb(0%,0%,0%);stroke-opacity:1;stroke-miterlimit:3;" d="M -0.00134078 348.000414 C -0.00134078 352.416748 -1.791932 356.001368 -3.998381 356.001368 C -6.208267 356.001368 -7.998858 352.416748 -7.998858 348.000414 C -7.998858 343.580643 -6.208267 339.99946 -3.998381 339.99946 C -1.791932 339.99946 -0.00134078 343.580643 -0.00134078 348.000414 Z M -0.00134078 348.000414 " transform="matrix(1.136583,0,0,1.136583,96.462461,-340.980643)"/>
<path style="fill-rule:evenodd;fill:rgb(0%,0%,0%);fill-opacity:1;stroke-width:0.229358;stroke-linecap:square;stroke-linejoin:round;stroke:rgb(0%,0%,0%);stroke-opacity:1;stroke-miterlimit:3;" d="M -0.00134078 348.000414 C -0.00134078 352.416748 -1.791932 356.001368 -3.998381 356.001368 C -6.208267 356.001368 -7.998858 352.416748 -7.998858 348.000414 C -7.998858 343.580643 -6.208267 339.99946 -3.998381 339.99946 C -1.791932 339.99946 -0.00134078 343.580643 -0.00134078 348.000414 Z M -0.00134078 348.000414 " transform="matrix(1.136583,0,0,1.136583,96.462461,-340.980643)"/>
</g>
</svg>
