<svg xmlns="http://www.w3.org/2000/svg" xmlns:xlink="http://www.w3.org/1999/xlink" width="1500pt" height="1500pt" viewBox="0 0 1500 1500" version="1.1">
<g id="surface452">
<path style="fill:none;stroke-width:2;stroke-linecap:butt;stroke-linejoin:miter;stroke:rgb(0%,0%,0%);stroke-opacity:1;stroke-dasharray:10,10;stroke-miterlimit:4;" d="M 1200 -2000 L -0.000000000000227374 -2000 L 0 0 L 1200 -0.000000000000073479 Z M 1200 -2000 " transform="matrix(0.000000000000000061,-1,1,0.000000000000000061,0,2000)"/>
<path style="fill:none;stroke-width:2;stroke-linecap:butt;stroke-linejoin:miter;stroke:rgb(0%,0%,0%);stroke-opacity:1;stroke-dasharray:10,10;stroke-miterlimit:4;" d="M 500 -2000 L -0.000000000000227374 -2000 L 0 0 L 500 -0.000000000000030616 Z M 500 -2000 " transform="matrix(0.000000000000000061,-1,1,0.000000000000000061,0,2000)"/>
<path style="fill:none;stroke-width:2;stroke-linecap:butt;stroke-linejoin:miter;stroke:rgb(0%,0%,0%);stroke-opacity:1;stroke-dasharray:10,10;stroke-miterlimit:4;" d="M 750 -2000 L -0.000000000000227374 -2000 L 0 0 L 750 -0.000000000000045924 Z M 750 -2000 " transform="matrix(0.000000000000000061,-1,1,0.000000000000000061,0,2000)"/>
<path style="fill:none;stroke-width:2;stroke-linecap:butt;stroke-linejoin:miter;stroke:rgb(0%,0%,0%);stroke-opacity:1;stroke-dasharray:10,10;stroke-miterlimit:4;" d="M 1000 -2000 L -0.000000000000227374 -2000 L 0 0 L 1000 -0.000000000000061232 Z M 1000 -2000 " transform="matrix(0.000000000000000061,-1,1,0.000000000000000061,0,2000)"/>
<path style="fill:none;stroke-width:2;stroke-linecap:butt;stroke-linejoin:miter;stroke:rgb(0%,0%,0%);stroke-opacity:1;stroke-dasharray:10,10;stroke-miterlimit:4;" d="M 1250 -2000 L -0.000000000000227374 -2000 L 0 0 L 1250 -0.00000000000007654 Z M 1250 -2000 " transform="matrix(0.000000000000000061,-1,1,0.000000000000000061,0,2000)"/>
<path style="fill:none;stroke-width:2;stroke-linecap:butt;stroke-linejoin:miter;stroke:rgb(0%,0%,0%);stroke-opacity:1;stroke-dasharray:10,10;stroke-miterlimit:4;" d="M 1500 -2000 L -0.000000000000227374 -2000 L 0 0 L 1500 -0.000000000000091849 Z M 1500 -2000 " transform="matrix(0.000000000000000061,-1,1,0.000000000000000061,0,2000)"/>
<path style="fill:none;stroke-width:2;stroke-linecap:butt;stroke-linejoin:miter;stroke:rgb(0%,0%,0%);stroke-opacity:1;stroke-dasharray:10,10;stroke-miterlimit:4;" d="M 1750 -2000 L -0.000000000000227374 -2000 L 0 0 L 1750 -0.000000000000107157 Z M 1750 -2000 " transform="matrix(0.000000000000000061,-1,1,0.000000000000000061,0,2000)"/>
<path style="fill:none;stroke-width:2;stroke-linecap:butt;stroke-linejoin:miter;stroke:rgb(0%,0%,0%);stroke-opacity:1;stroke-dasharray:10,10;stroke-miterlimit:4;" d="M 2000 -2000 L -0.000000000000227374 -2000 L 0 0 L 2000 -0.000000000000122465 Z M 2000 -2000 " transform="matrix(0.000000000000000061,-1,1,0.000000000000000061,0,2000)"/>
<path style="fill:none;stroke-width:2;stroke-linecap:butt;stroke-linejoin:miter;stroke:rgb(0%,0%,0%);stroke-opacity:1;stroke-dasharray:10,10;stroke-miterlimit:4;" d="M 2250 -2000 L -0.000000000000227374 -2000 L 0 0 L 2250 -0.000000000000137773 Z M 2250 -2000 " transform="matrix(0.000000000000000061,-1,1,0.000000000000000061,0,2000)"/>
<path style="fill:none;stroke-width:2;stroke-linecap:butt;stroke-linejoin:miter;stroke:rgb(0%,0%,0%);stroke-opacity:1;stroke-dasharray:10,10;stroke-miterlimit:4;" d="M 2500 -2000 L -0.000000000000227374 -2000 L 0 0 L 2500 -0.000000000000153081 Z M 2500 -2000 " transform="matrix(0.000000000000000061,-1,1,0.000000000000000061,0,2000)"/>
<path style="fill:none;stroke-width:2;stroke-linecap:butt;stroke-linejoin:miter;stroke:rgb(0%,0%,0%);stroke-opacity:1;stroke-dasharray:10,10;stroke-miterlimit:4;" d="M 2750 -2000 L -0.000000000000227374 -2000 L 0 0 L 2750 -0.000000000000168389 Z M 2750 -2000 " transform="matrix(0.000000000000000061,-1,1,0.000000000000000061,0,2000)"/>
<path style="fill:none;stroke-width:2;stroke-linecap:butt;stroke-linejoin:miter;stroke:rgb(0%,0%,0%);stroke-opacity:1;stroke-dasharray:10,10;stroke-miterlimit:4;" d="M 3000 -2000 L -0.000000000000227374 -2000 L 0 0 L 3000 -0.000000000000183697 Z M 3000 -2000 " transform="matrix(0.000000000000000061,-1,1,0.000000000000000061,0,2000)"/>
<path style="fill:none;stroke-width:2;stroke-linecap:butt;stroke-linejoin:miter;stroke:rgb(0%,0%,0%);stroke-opacity:1;stroke-dasharray:10,10;stroke-miterlimit:4;" d="M 3250 -2000 L -0.000000000000227374 -2000 L 0 0 L 3250 -0.000000000000199005 Z M 3250 -2000 " transform="matrix(0.000000000000000061,-1,1,0.000000000000000061,0,2000)"/>
<path style="fill:none;stroke-width:2;stroke-linecap:butt;stroke-linejoin:miter;stroke:rgb(0%,0%,0%);stroke-opacity:1;stroke-dasharray:10,10;stroke-miterlimit:4;" d="M 3500 -2000 L -0.000000000000227374 -2000 L 0 0 L 3500 -0.000000000000214313 Z M 3500 -2000 " transform="matrix(0.000000000000000061,-1,1,0.000000000000000061,0,2000)"/>
<path style="fill:none;stroke-width:2;stroke-linecap:butt;stroke-linejoin:miter;stroke:rgb(0%,0%,0%);stroke-opacity:1;stroke-dasharray:10,10;stroke-miterlimit:4;" d="M 3750 -2000 L -0.000000000000227374 -2000 L 0 0 L 3750 -0.000000000000229621 Z M 3750 -2000 " transform="matrix(0.000000000000000061,-1,1,0.000000000000000061,0,2000)"/>
<path style="fill:none;stroke-width:2;stroke-linecap:butt;stroke-linejoin:miter;stroke:rgb(0%,0%,0%);stroke-opacity:1;stroke-dasharray:10,10;stroke-miterlimit:4;" d="M 4000 -2000 L -0.000000000000227374 -2000 L 0 0 L 4000 -0.000000000000244929 Z M 4000 -2000 " transform="matrix(0.000000000000000061,-1,1,0.000000000000000061,0,2000)"/>
<path style="fill:none;stroke-width:2;stroke-linecap:butt;stroke-linejoin:miter;stroke:rgb(0%,0%,0%);stroke-opacity:1;stroke-dasharray:10,10;stroke-miterlimit:4;" d="M 4250 -2000 L -0.000000000000227374 -2000 L 0 0 L 4250 -0.000000000000260237 Z M 4250 -2000 " transform="matrix(0.000000000000000061,-1,1,0.000000000000000061,0,2000)"/>
<path style="fill:none;stroke-width:2;stroke-linecap:butt;stroke-linejoin:miter;stroke:rgb(0%,0%,0%);stroke-opacity:1;stroke-dasharray:10,10;stroke-miterlimit:4;" d="M 4500 -2000 L -0.000000000000227374 -2000 L 0 0 L 4500 -0.000000000000275546 Z M 4500 -2000 " transform="matrix(0.000000000000000061,-1,1,0.000000000000000061,0,2000)"/>
<path style="fill:none;stroke-width:2;stroke-linecap:butt;stroke-linejoin:miter;stroke:rgb(0%,0%,0%);stroke-opacity:1;stroke-dasharray:10,10;stroke-miterlimit:4;" d="M 4750 -2000 L -0.000000000000227374 -2000 L 0 0 L 4750 -0.000000000000290854 Z M 4750 -2000 " transform="matrix(0.000000000000000061,-1,1,0.000000000000000061,0,2000)"/>
<path style="fill:none;stroke-width:2;stroke-linecap:butt;stroke-linejoin:miter;stroke:rgb(0%,0%,0%);stroke-opacity:1;stroke-dasharray:10,10;stroke-miterlimit:4;" d="M 5000 -2000 L -0.000000000000227374 -2000 L 0 0 L 5000 -0.000000000000306162 Z M 5000 -2000 " transform="matrix(0.000000000000000061,-1,1,0.000000000000000061,0,2000)"/>
<path style="fill:none;stroke-width:2;stroke-linecap:butt;stroke-linejoin:miter;stroke:rgb(0%,0%,0%);stroke-opacity:1;stroke-dasharray:10,10;stroke-miterlimit:4;" d="M 5250 -2000 L -0.000000000000227374 -2000 L 0 0 L 5250 -0.00000000000032147 Z M 5250 -2000 " transform="matrix(0.000000000000000061,-1,1,0.000000000000000061,0,2000)"/>
<path style="fill:none;stroke-width:2;stroke-linecap:butt;stroke-linejoin:miter;stroke:rgb(0%,0%,0%);stroke-opacity:1;stroke-dasharray:10,10;stroke-miterlimit:4;" d="M 5500 -2000 L -0.000000000000227374 -2000 L 0 0 L 5500 -0.000000000000336778 Z M 5500 -2000 " transform="matrix(0.000000000000000061,-1,1,0.000000000000000061,0,2000)"/>
<path style="fill:none;stroke-width:2;stroke-linecap:butt;stroke-linejoin:miter;stroke:rgb(0%,0%,0%);stroke-opacity:1;stroke-dasharray:10,10;stroke-miterlimit:4;" d="M 5750 -2000 L -0.000000000000227374 -2000 L 0 0 L 5750 -0.000000000000352086 Z M 5750 -2000 " transform="matrix(0.000000000000000061,-1,1,0.000000000000000061,0,2000)"/>
<path style="fill:none;stroke-width:2;stroke-linecap:butt;stroke-linejoin:miter;stroke:rgb(0%,0%,0%);stroke-opacity:1;stroke-dasharray:10,10;stroke-miterlimit:4;" d="M 6000 -2000 L -0.000000000000227374 -2000 L 0 0 L 6000 -0.000000000000367394 Z M 6000 -2000 " transform="matrix(0.000000000000000061,-1,1,0.000000000000000061,0,2000)"/>
<path style="fill:none;stroke-width:2;stroke-linecap:butt;stroke-linejoin:miter;stroke:rgb(0%,0%,0%);stroke-opacity:1;stroke-dasharray:10,10;stroke-miterlimit:4;" d="M 6250 -2000 L -0.000000000000227374 -2000 L 0 0 L 6250 -0.000000000000382702 Z M 6250 -2000 " transform="matrix(0.000000000000000061,-1,1,0.000000000000000061,0,2000)"/>
<path style="fill:none;stroke-width:2;stroke-linecap:butt;stroke-linejoin:miter;stroke:rgb(0%,0%,0%);stroke-opacity:1;stroke-dasharray:10,10;stroke-miterlimit:4;" d="M 6500 -2000 L -0.000000000000227374 -2000 L 0 0 L 6500 -0.00000000000039801 Z M 6500 -2000 " transform="matrix(0.000000000000000061,-1,1,0.000000000000000061,0,2000)"/>
<path style="fill:none;stroke-width:2;stroke-linecap:butt;stroke-linejoin:miter;stroke:rgb(0%,0%,0%);stroke-opacity:1;stroke-dasharray:10,10;stroke-miterlimit:4;" d="M 6750 -2000 L -0.000000000000227374 -2000 L 0 0 L 6750 -0.000000000000413318 Z M 6750 -2000 " transform="matrix(0.000000000000000061,-1,1,0.000000000000000061,0,2000)"/>
<path style="fill:none;stroke-width:2;stroke-linecap:butt;stroke-linejoin:miter;stroke:rgb(0%,0%,0%);stroke-opacity:1;stroke-dasharray:10,10;stroke-miterlimit:4;" d="M 7000 -2000 L -0.000000000000227374 -2000 L 0 0 L 7000 -0.000000000000428626 Z M 7000 -2000 " transform="matrix(0.000000000000000061,-1,1,0.000000000000000061,0,2000)"/>
<path style="fill:none;stroke-width:2;stroke-linecap:butt;stroke-linejoin:miter;stroke:rgb(0%,0%,0%);stroke-opacity:1;stroke-dasharray:10,10;stroke-miterlimit:4;" d="M 7250 -2000 L -0.000000000000227374 -2000 L 0 0 L 7250 -0.000000000000443934 Z M 7250 -2000 " transform="matrix(0.000000000000000061,-1,1,0.000000000000000061,0,2000)"/>
<path style="fill:none;stroke-width:2;stroke-linecap:butt;stroke-linejoin:miter;stroke:rgb(0%,0%,0%);stroke-opacity:1;stroke-miterlimit:4;" d="M 7500 -2000 L -0.000000000000227374 -2000 L 0 0 L 7500 -0.000000000000459243 Z M 7500 -2000 " transform="matrix(0.000000000000000061,-1,1,0.000000000000000061,0,2000)"/>
</g>
</svg>
