<svg xmlns="http://www.w3.org/2000/svg" xmlns:xlink="http://www.w3.org/1999/xlink" width="401pt" height="401pt" viewBox="0 0 401 401" version="1.1">
<g id="surface1">
<path style="fill-rule:nonzero;fill:rgb(100%,100%,100%);fill-opacity:1;stroke-width:1;stroke-linecap:butt;stroke-linejoin:miter;stroke:rgb(0%,0%,0%);stroke-opacity:1;stroke-miterlimit:4;" d="M 0 150 L 60 150 L 60 210 L 0 210 Z M 0 150 " transform="matrix(1,0,0,1,0.5,0.5)"/>
<path style="fill-rule:nonzero;fill:rgb(100%,100%,100%);fill-opacity:1;stroke-width:1;stroke-linecap:butt;stroke-linejoin:miter;stroke:rgb(0%,0%,0%);stroke-opacity:1;stroke-miterlimit:4;" d="M 60 110 L 100 110 L 100 150 L 60 150 Z M 60 110 " transform="matrix(1,0,0,1,0.5,0.5)"/>
<path style="fill-rule:nonzero;fill:rgb(100%,100%,100%);fill-opacity:1;stroke-width:1;stroke-linecap:butt;stroke-linejoin:miter;stroke:rgb(0%,0%,0%);stroke-opacity:1;stroke-miterlimit:4;" d="M 120 250 L 260 250 L 260 400 L 120 400 Z M 120 250 " transform="matrix(1,0,0,1,0.5,0.5)"/>
<path style="fill-rule:nonzero;fill:rgb(100%,100%,100%);fill-opacity:1;stroke-width:1;stroke-linecap:butt;stroke-linejoin:miter;stroke:rgb(0%,0%,0%);stroke-opacity:1;stroke-miterlimit:10;" d="M 120 250 L 60 210 L 100 150 Z M 120 250 " transform="matrix(1,0,0,1,0.5,0.5)"/>
<path style="fill-rule:nonzero;fill:rgb(100%,100%,100%);fill-opacity:1;stroke-width:1;stroke-linecap:butt;stroke-linejoin:miter;stroke:rgb(0%,0%,0%);stroke-opacity:1;stroke-miterlimit:10;" d="M 120 250 L 260 250 L 320 150 L 220 85 Z M 120 250 " transform="matrix(1,0,0,1,0.5,0.5)"/>
<path style=" stroke:none;fill-rule:nonzero;fill:rgb(0%,0%,0%);fill-opacity:0.05;" d="M 120.5 250.5 L 260.5 250.5 L 320.5 150.5 L 220.5 85.5 Z M 120.5 250.5 "/>
<path style=" stroke:none;fill-rule:nonzero;fill:rgb(0%,0%,0%);fill-opacity:0.1;" d="M 120.5 250.5 L 260.5 250.5 L 320.5 150.5 L 220.5 85.5 Z M 120.5 250.5 "/>
<path style=" stroke:none;fill-rule:nonzero;fill:rgb(0%,0%,0%);fill-opacity:0.15;" d="M 120.5 250.5 L 260.5 250.5 L 320.5 150.5 L 220.5 85.5 Z M 120.5 250.5 "/>
<path style=" stroke:none;fill-rule:nonzero;fill:rgb(0%,0%,0%);fill-opacity:0.2;" d="M 120.5 250.5 L 260.5 250.5 L 320.5 150.5 L 220.5 85.5 Z M 120.5 250.5 "/>
<path style=" stroke:none;fill-rule:nonzero;fill:rgb(0%,0%,0%);fill-opacity:0.25;" d="M 120.5 250.5 L 260.5 250.5 L 320.5 150.5 L 220.5 85.5 Z M 120.5 250.5 "/>
<path style=" stroke:none;fill-rule:nonzero;fill:rgb(0%,0%,0%);fill-opacity:0.3;" d="M 120.5 250.5 L 260.5 250.5 L 320.5 150.5 L 220.5 85.5 Z M 120.5 250.5 "/>
<path style=" stroke:none;fill-rule:nonzero;fill:rgb(0%,0%,0%);fill-opacity:0.35;" d="M 120.5 250.5 L 260.5 250.5 L 320.5 150.5 L 220.5 85.5 Z M 120.5 250.5 "/>
<path style=" stroke:none;fill-rule:nonzero;fill:rgb(0%,0%,0%);fill-opacity:0.4;" d="M 120.5 250.5 L 260.5 250.5 L 320.5 150.5 L 220.5 85.5 Z M 120.5 250.5 "/>
<path style=" stroke:none;fill-rule:nonzero;fill:rgb(0%,0%,0%);fill-opacity:0.45;" d="M 120.5 250.5 L 260.5 250.5 L 320.5 150.5 L 220.5 85.5 Z M 120.5 250.5 "/>
<path style=" stroke:none;fill-rule:nonzero;fill:rgb(0%,0%,0%);fill-opacity:0.5;" d="M 120.5 250.5 L 260.5 250.5 L 320.5 150.5 L 220.5 85.5 Z M 120.5 250.5 "/>
<path style=" stroke:none;fill-rule:nonzero;fill:rgb(0%,0%,0%);fill-opacity:0.55;" d="M 120.5 250.5 L 260.5 250.5 L 320.5 150.5 L 220.5 85.5 Z M 120.5 250.5 "/>
<path style=" stroke:none;fill-rule:nonzero;fill:rgb(0%,0%,0%);fill-opacity:0.6;" d="M 120.5 250.5 L 260.5 250.5 L 320.5 150.5 L 220.5 85.5 Z M 120.5 250.5 "/>
<path style=" stroke:none;fill-rule:nonzero;fill:rgb(0%,0%,0%);fill-opacity:0.65;" d="M 120.5 250.5 L 260.5 250.5 L 320.5 150.5 L 220.5 85.5 Z M 120.5 250.5 "/>
<path style=" stroke:none;fill-rule:nonzero;fill:rgb(0%,0%,0%);fill-opacity:0.7;" d="M 120.5 250.5 L 260.5 250.5 L 320.5 150.5 L 220.5 85.5 Z M 120.5 250.5 "/>
<path style=" stroke:none;fill-rule:nonzero;fill:rgb(0%,0%,0%);fill-opacity:0.75;" d="M 120.5 250.5 L 260.5 250.5 L 320.5 150.5 L 220.5 85.5 Z M 120.5 250.5 "/>
<path style=" stroke:none;fill-rule:nonzero;fill:rgb(0%,0%,0%);fill-opacity:0.8;" d="M 120.5 250.5 L 260.5 250.5 L 320.5 150.5 L 220.5 85.5 Z M 120.5 250.5 "/>
<path style=" stroke:none;fill-rule:nonzero;fill:rgb(0%,0%,0%);fill-opacity:0.85;" d="M 120.5 250.5 L 260.5 250.5 L 320.5 150.5 L 220.5 85.5 Z M 120.5 250.5 "/>
<path style=" stroke:none;fill-rule:nonzero;fill:rgb(0%,0%,0%);fill-opacity:0.9;" d="M 120.5 250.5 L 260.5 250.5 L 320.5 150.5 L 220.5 85.5 Z M 120.5 250.5 "/>
<path style=" stroke:none;fill-rule:nonzero;fill:rgb(0%,0%,0%);fill-opacity:0.95;" d="M 120.5 250.5 L 260.5 250.5 L 320.5 150.5 L 220.5 85.5 Z M 120.5 250.5 "/>
<path style=" stroke:none;fill-rule:nonzero;fill:rgb(0%,0%,0%);fill-opacity:1;" d="M 120.5 250.5 L 260.5 250.5 L 320.5 150.5 L 220.5 85.5 Z M 120.5 250.5 "/>
<path style=" stroke:none;fill-rule:nonzero;fill:rgb(0%,0%,0%);fill-opacity:1;" d="M 120.5 250.5 L 260.5 250.5 L 320.5 150.5 L 220.5 85.5 Z M 120.5 250.5 "/>
<path style=" stroke:none;fill-rule:nonzero;fill:rgb(0%,0%,0%);fill-opacity:1;" d="M 120.5 250.5 L 260.5 250.5 L 320.5 150.5 L 220.5 85.5 Z M 120.5 250.5 "/>
<path style=" stroke:none;fill-rule:nonzero;fill:rgb(0%,0%,0%);fill-opacity:1;" d="M 120.5 250.5 L 260.5 250.5 L 320.5 150.5 L 220.5 85.5 Z M 120.5 250.5 "/>
<path style=" stroke:none;fill-rule:nonzero;fill:rgb(0%,0%,0%);fill-opacity:1;" d="M 120.5 250.5 L 260.5 250.5 L 320.5 150.5 L 220.5 85.5 Z M 120.5 250.5 "/>
<path style=" stroke:none;fill-rule:nonzero;fill:rgb(0%,0%,0%);fill-opacity:1;" d="M 120.5 250.5 L 260.5 250.5 L 320.5 150.5 L 220.5 85.5 Z M 120.5 250.5 "/>
<path style=" stroke:none;fill-rule:nonzero;fill:rgb(0%,0%,0%);fill-opacity:1;" d="M 120.5 250.5 L 260.5 250.5 L 320.5 150.5 L 220.5 85.5 Z M 120.5 250.5 "/>
<path style=" stroke:none;fill-rule:nonzero;fill:rgb(0%,0%,0%);fill-opacity:1;" d="M 120.5 250.5 L 260.5 250.5 L 320.5 150.5 L 220.5 85.5 Z M 120.5 250.5 "/>
<path style=" stroke:none;fill-rule:nonzero;fill:rgb(0%,0%,0%);fill-opacity:1;" d="M 120.5 250.5 L 260.5 250.5 L 320.5 150.5 L 220.5 85.5 Z M 120.5 250.5 "/>
<path style=" stroke:none;fill-rule:nonzero;fill:rgb(0%,0%,0%);fill-opacity:1;" d="M 120.5 250.5 L 260.5 250.5 L 320.5 150.5 L 220.5 85.5 Z M 120.5 250.5 "/>
<path style=" stroke:none;fill-rule:nonzero;fill:rgb(0%,0%,0%);fill-opacity:1;" d="M 120.5 250.5 L 260.5 250.5 L 320.5 150.5 L 220.5 85.5 Z M 120.5 250.5 "/>
<path style=" stroke:none;fill-rule:nonzero;fill:rgb(0%,0%,0%);fill-opacity:1;" d="M 120.5 250.5 L 260.5 250.5 L 320.5 150.5 L 220.5 85.5 Z M 120.5 250.5 "/>
<path style=" stroke:none;fill-rule:nonzero;fill:rgb(0%,0%,0%);fill-opacity:1;" d="M 120.5 250.5 L 260.5 250.5 L 320.5 150.5 L 220.5 85.5 Z M 120.5 250.5 "/>
<path style=" stroke:none;fill-rule:nonzero;fill:rgb(0%,0%,0%);fill-opacity:1;" d="M 120.5 250.5 L 260.5 250.5 L 320.5 150.5 L 220.5 85.5 Z M 120.5 250.5 "/>
<path style=" stroke:none;fill-rule:nonzero;fill:rgb(0%,0%,0%);fill-opacity:1;" d="M 120.5 250.5 L 260.5 250.5 L 320.5 150.5 L 220.5 85.5 Z M 120.5 250.5 "/>
<path style=" stroke:none;fill-rule:nonzero;fill:rgb(0%,0%,0%);fill-opacity:1;" d="M 120.5 250.5 L 260.5 250.5 L 320.5 150.5 L 220.5 85.5 Z M 120.5 250.5 "/>
<path style=" stroke:none;fill-rule:nonzero;fill:rgb(0%,0%,0%);fill-opacity:1;" d="M 120.5 250.5 L 260.5 250.5 L 320.5 150.5 L 220.5 85.5 Z M 120.5 250.5 "/>
<path style=" stroke:none;fill-rule:nonzero;fill:rgb(0%,0%,0%);fill-opacity:1;" d="M 120.5 250.5 L 260.5 250.5 L 320.5 150.5 L 220.5 85.5 Z M 120.5 250.5 "/>
<path style=" stroke:none;fill-rule:nonzero;fill:rgb(0%,0%,0%);fill-opacity:1;" d="M 120.5 250.5 L 260.5 250.5 L 320.5 150.5 L 220.5 85.5 Z M 120.5 250.5 "/>
<path style=" stroke:none;fill-rule:nonzero;fill:rgb(0%,0%,0%);fill-opacity:1;" d="M 120.5 250.5 L 260.5 250.5 L 320.5 150.5 L 220.5 85.5 Z M 120.5 250.5 "/>
<path style=" stroke:none;fill-rule:nonzero;fill:rgb(0%,0%,0%);fill-opacity:1;" d="M 120.5 250.5 L 260.5 250.5 L 320.5 150.5 L 220.5 85.5 Z M 120.5 250.5 "/>
<path style=" stroke:none;fill-rule:nonzero;fill:rgb(0%,0%,0%);fill-opacity:1;" d="M 120.5 250.5 L 260.5 250.5 L 320.5 150.5 L 220.5 85.5 Z M 120.5 250.5 "/>
<path style=" stroke:none;fill-rule:nonzero;fill:rgb(0%,0%,0%);fill-opacity:1;" d="M 120.5 250.5 L 260.5 250.5 L 320.5 150.5 L 220.5 85.5 Z M 120.5 250.5 "/>
<path style=" stroke:none;fill-rule:nonzero;fill:rgb(0%,0%,0%);fill-opacity:1;" d="M 120.5 250.5 L 260.5 250.5 L 320.5 150.5 L 220.5 85.5 Z M 120.5 250.5 "/>
<path style=" stroke:none;fill-rule:nonzero;fill:rgb(0%,0%,0%);fill-opacity:1;" d="M 120.5 250.5 L 260.5 250.5 L 320.5 150.5 L 220.5 85.5 Z M 120.5 250.5 "/>
<path style=" stroke:none;fill-rule:nonzero;fill:rgb(0%,0%,0%);fill-opacity:1;" d="M 120.5 250.5 L 260.5 250.5 L 320.5 150.5 L 220.5 85.5 Z M 120.5 250.5 "/>
<path style=" stroke:none;fill-rule:nonzero;fill:rgb(0%,0%,0%);fill-opacity:1;" d="M 120.5 250.5 L 260.5 250.5 L 320.5 150.5 L 220.5 85.5 Z M 120.5 250.5 "/>
</g>
</svg>
