<svg xmlns="http://www.w3.org/2000/svg" xmlns:xlink="http://www.w3.org/1999/xlink" version="1.1" width="152px" height="81px" viewBox="-0.5 -0.5 152 81" content="&lt;mxfile&gt;&lt;diagram name=&quot; página-1&quot; id=&quot;26545595-9049-4980-9490-947499659595&quot;&gt;7Zlfb5swEMc/Ddc veng namemap namemap&lt;/diagram&gt;&lt;/mxfile&gt;"><defs><linearGradient x1="0%" y1="0%" x2="0%" y2="100%" id="mx-gradient-none-0-none-0-s-0"><stop offset="0%" style="stop-color:none;stop-opacity:0"/><stop offset="100%" style="stop-color:none;stop-opacity:0"/></linearGradient></defs><g><path d="M 0 44 L 120 44" fill="none" stroke="#000000" stroke-miterlimit="10" stroke-dasharray="3 3" pointer-events="none"/><ellipse cx="120" cy="44" rx="5" ry="10" fill="#000000" stroke="#000000" pointer-events="none"/><ellipse cx="120" cy="44" rx="4.5" ry="9.5" fill="none" stroke="#000000" pointer-events="none"/><path d="M 120 0 L 120 44 M 120 44 L 150 44 M 150 44 L 140 52 M 150 44 L 140 36" fill="none" stroke="#000000" stroke-miterlimit="10" pointer-events="none"/><path d="M 140 36 L 150 44 L 140 52 Z" fill="#000000" stroke="#000000" stroke-miterlimit="10" pointer-events="none"/><path d="M 0 0 L 120 0 M 120 0 L 120 44 M 120 44 L 60 44 M 60 44 L 60 24" fill="none" stroke="#000000" stroke-miterlimit="10" stroke-dasharray="3 3" pointer-events="none"/><ellipse cx="60" cy="80" rx="5" ry="20" fill="#ffffff" stroke="#000000" pointer-events="none"/><ellipse cx="60" cy="80" rx="4.5" ry="19.5" fill="none" stroke="#000000" pointer-events="none"/><path d="M 120 80 L 120 100 M 120 100 L 150 100 M 150 100 L 140 108 M 150 100 L 140 92" fill="none" stroke="#000000" stroke-miterlimit="10" pointer-events="none"/><path d="M 140 92 L 150 100 L 140 108 Z" fill="#000000" stroke="#000000" stroke-miterlimit="10" pointer-events="none"/></g></svg>