<svg xmlns="http://www.w3.org/2000/svg" xmlns:xlink="http://www.w3.org/1999/xlink" width="270pt" height="270pt" viewBox="0 0 270 270" version="1.1">
<g id="surface310">
<path style="fill:none;stroke-width:1;stroke-linecap:butt;stroke-linejoin:round;stroke:rgb(3.921569%,98.039216%,98.039216%);stroke-opacity:1;stroke-miterlimit:10;" d="M 252 252 L 222 322 L 222 222 Z M 252 252 " transform="matrix(0.000000000000000061,-1,1,0.000000000000000061,-4.5,479.5)"/>
<path style="fill:none;stroke-width:1;stroke-linecap:butt;stroke-linejoin:round;stroke:rgb(68.627451%,66.666667%,98.039216%);stroke-opacity:1;stroke-miterlimit:10;" d="M 252 252 L 222 322 L 222 222 Z M 252 252 " transform="matrix(0.000000000000000061,-1,1,0.000000000000000061,-4.5,479.5)"/>
<path style="fill:none;stroke-width:1;stroke-linecap:butt;stroke-linejoin:round;stroke:rgb(3.921569%,98.039216%,98.039216%);stroke-opacity:1;stroke-miterlimit:10;" d="M 252 252 L 222 322 L 222 222 Z M 252 252 " transform="matrix(0.000000000000000061,-1,1,0.000000000000000061,-4.5,479.5)"/>
<path style="fill:none;stroke-width:1;stroke-linecap:butt;stroke-linejoin:round;stroke:rgb(68.627451%,66.666667%,98.039216%);stroke-opacity:1;stroke-miterlimit:10;" d="M 252 252 L 222 322 L 222 222 Z M 252 252 " transform="matrix(0.000000000000000061,-1,1,0.000000000000000061,-4.5,479.5)"/>
<path style="fill:none;stroke-width:1;stroke-linecap:butt;stroke-linejoin:round;stroke:rgb(3.921569%,98.039216%,98.039216%);stroke-opacity:1;stroke-miterlimit:10;" d="M 252 252 L 222 322 L 222 222 Z M 252 252 " transform="matrix(0.000000000000000061,-1,1,0.000000000000000061,-4.5,479.5)"/>
<path style="fill:none;stroke-width:1;stroke-linecap:butt;stroke-linejoin:round;stroke:rgb(68.627451%,66.666667%,98.039216%);stroke-opacity:1;stroke-miterlimit:4;" d="M 252 252 L 222 322 L 222 222 Z M 252 252 " transform="matrix(1,0,0,1,0.5,0.5)"/>
</g>
</svg>
