<svg xmlns="http://www.w3.org/2000/svg" xmlns:xlink="http://www.w3.org/1999/xlink" width="200pt" height="200pt" viewBox="0 0 200 200" version="1.1">
<g id="surface209">
<rect x="0" y="0" width="200" height="200" style="fill:rgb(100%,100%,100%);fill-opacity:1;stroke:none;"/>
<path style="fill:none;stroke-width:0.5;stroke-linecap:butt;stroke-linejoin:miter;stroke:rgb(0%,0%,0%);stroke-opacity:1;stroke-miterlimit:4;" d="M 0 0 L 199 0 " transform="matrix(1,0,0,1,11.5,164.5)"/>
<path style="fill:none;stroke-width:0.5;stroke-linecap:butt;stroke-linejoin:miter;stroke:rgb(0%,0%,0%);stroke-opacity:1;stroke-dasharray:2,2;stroke-miterlimit:4;" d="M 0 0 L 0.000000000000028422 180 " transform="matrix(0.000000000000000061,-1,1,0.000000000000000061,134,164.5)"/>
<path style="fill:none;stroke-width:0.5;stroke-linecap:butt;stroke-linejoin:miter;stroke:rgb(0%,0%,0%);stroke-opacity:1;stroke-dasharray:2,2;stroke-miterlimit:4;" d="M 0 0 L 199 -0.000000000000012434 " transform="matrix(0.000000000000000061,-1,1,0.000000000000000061,11.5,164.5)"/>
<path style="fill:none;stroke-width:0.5;stroke-linecap:butt;stroke-linejoin:miter;stroke:rgb(0%,0%,0%);stroke-opacity:1;stroke-dasharray:2,2;stroke-miterlimit:4;" d="M 0 0 L 199 -0.000000000000012434 " transform="matrix(0.000000000000000061,-1,1,0.000000000000000061,11.5,164.5)"/>
<path style="fill:none;stroke-width:0.5;stroke-linecap:butt;stroke-linejoin:miter;stroke:rgb(0%,0%,0%);stroke-opacity:1;stroke-dasharray:2,2;stroke-miterlimit:4;" d="M 0 0 L 199 -0.000000000000012434 " transform="matrix(0.000000000000000061,-1,1,0.000000000000000061,11.5,164.5)"/>
<path style="fill:none;stroke-width:0.5;stroke-linecap:butt;stroke-linejoin:miter;stroke:rgb(0%,0%,0%);stroke-opacity:1;stroke-dasharray:2,2;stroke-miterlimit:4;" d="M 0 0 L 199 -0.000000000000012434 " transform="matrix(0.000000000000000061,-1,1,0.000000000000000061,11.5,164.5)"/>
<path style="fill:none;stroke-width:0.5;stroke-linecap:butt;stroke-linejoin:miter;stroke:rgb(0%,0%,0%);stroke-opacity:1;stroke-dasharray:2,2;stroke-miterlimit:4;" d="M 0 0 L 199 -0.000000000000012434 " transform="matrix(0.000000000000000061,-1,1,0.000000000000000061,11.5,164.5)"/>
<path style="fill:none;stroke-width:0.5;stroke-linecap:butt;stroke-linejoin:miter;stroke:rgb(0%,0%,0%);stroke-opacity:1;stroke-dasharray:2,2;stroke-miterlimit:4;" d="M 0 0 L 199 -0.000000000000012434 " transform="matrix(0.000000000000000061,-1,1,0.000000000000000061,11.5,164.5)"/>
<path style="fill:none;stroke-width:0.5;stroke-linecap:butt;stroke-linejoin:miter;stroke:rgb(0%,0%,0%);stroke-opacity:1;stroke-dasharray:2,2;stroke-miterlimit:4;" d="M 0 0 L 199 -0.000000000000012434 " transform="matrix(0.000000000000000061,-1,1,0.000000000000000061,11.5,164.5)"/>
<path style="fill:none;stroke-width:0.5;stroke-linecap:butt;stroke-linejoin:miter;stroke:rgb(0%,0%,0%);stroke-opacity:1;stroke-dasharray:2,2;stroke-miterlimit:4;" d="M 0 0 L 199 -0.000000000000012434 " transform="matrix(0.000000000000000061,-1,1,0.000000000000000061,11.5,164.5)"/>
<path style="fill:none;stroke-width:0.5;stroke-linecap:butt;stroke-linejoin:miter;stroke:rgb(0%,0%,0%);stroke-opacity:1;stroke-dasharray:2,2;stroke-miterlimit:4;" d="M 0 0 L 199 -0.000000000000012434 " transform="matrix(0.000000000000000061,-1,1,0.000000000000000061,11.5,164.5)"/>
<path style="fill:none;stroke-width:0.5;stroke-linecap:butt;stroke-linejoin:miter;stroke:rgb(0%,0%,0%);stroke-opacity:1;stroke-dasharray:2,2;stroke-miterlimit:4;" d="M 0 0 L 199 -0.000000000000012434 " transform="matrix(0.000000000000000061,-1,1,0.000000000000000061,11.5,164.5)"/>
<path style="fill:none;stroke-width:0.5;stroke-linecap:butt;stroke-linejoin:miter;stroke:rgb(0%,0%,0%);stroke-opacity:1;stroke-dasharray:2,2;stroke-miterlimit:4;" d="M 0 0 L 199 -0.000000000000012434 " transform="matrix(0.000000000000000061,-1,1,0.000000000000000061,11.5,164.5)"/>
<path style="fill:none;stroke-width:0.5;stroke-linecap:butt;stroke-linejoin:miter;stroke:rgb(0%,0%,0%);stroke-opacity:1;stroke-dasharray:2,2;stroke-miterlimit:4;" d="M 0 0 L 199 -0.000000000000012434 " transform="matrix(0.000000000000000061,-1,1,0.000000000000000061,11.5,164.5)"/>
<path style="fill:none;stroke-width:0.5;stroke-linecap:butt;stroke-linejoin:miter;stroke:rgb(0%,0%,0%);stroke-opacity:1;stroke-dasharray:2,2;stroke-miterlimit:4;" d="M 0 0 L 199 -0.000000000000012434 " transform="matrix(0.000000000000000061,-1,1,0.000000000000000061,11.5,164.5)"/>
<path style="fill:none;stroke-width:0.5;stroke-linecap:butt;stroke-linejoin:miter;stroke:rgb(0%,0%,0%);stroke-opacity:1;stroke-dasharray:2,2;stroke-miterlimit:4;" d="M 0 0 L 199 -0.000000000000012434 " transform="matrix(0.000000000000000061,-1,1,0.000000000000000061,11.5,164.5)"/>
<path style="fill:none;stroke-width:0.5;stroke-linecap:butt;stroke-linejoin:miter;stroke:rgb(0%,0%,0%);stroke-opacity:1;stroke-dasharray:2,2;stroke-miterlimit:4;" d="M 0 0 L 199 -0.000000000000012434 " transform="matrix(0.000000000000000061,-1,1,0.000000000000000061,11.5,164.5)"/>
<path style="fill:none;stroke-width:0.5;stroke-linecap:butt;stroke-linejoin:miter;stroke:rgb(0%,0%,0%);stroke-opacity:1;stroke-dasharray:2,2;stroke-miterlimit:4;" d="M 0 0 L 199 -0.000000000000012434 " transform="matrix(0.000000000000000061,-1,1,0.000000000000000061,11.5,164.5)"/>
<path style="fill:none;stroke-width:0.5;stroke-linecap:butt;stroke-linejoin:miter;stroke:rgb(0%,0%,0%);stroke-opacity:1;stroke-dasharray:2,2;stroke-miterlimit:4;" d="M 0 0 L 199 -0.000000000000012434 " transform="matrix(0.000000000000000061,-1,1,0.000000000000000061,11.5,164.5)"/>
<path style="fill:none;stroke-width:0.5;stroke-linecap:butt;stroke-linejoin:miter;stroke:rgb(0%,0%,0%);stroke-opacity:1;stroke-dasharray:2,2;stroke-miterlimit:4;" d="M 0 0 L 199 -0.000000000000012434 " transform="matrix(0.000000000000000061,-1,1,0.000000000000000061,11.5,164.5)"/>
<path style="fill:none;stroke-width:0.5;stroke-linecap:butt;stroke-linejoin:miter;stroke:rgb(0%,0%,0%);stroke-opacity:1;stroke-dasharray:2,2;stroke-miterlimit:4;" d="M 0 0 L 199 -0.000000000000012434 " transform="matrix(0.000000000000000061,-1,1,0.000000000000000061,11.5,164.5)"/>
<path style="fill:none;stroke-width:0.5;stroke-linecap:butt;stroke-linejoin:miter;stroke:rgb(0%,0%,0%);stroke-opacity:1;stroke-dasharray:2,2;stroke-miterlimit:4;" d="M 0 0 L 199 -0.000000000000012434 " transform="matrix(0.000000000000000061,-1,1,0.000000000000000061,11.5,164.5)"/>
<path style="fill:none;stroke-width:0.5;stroke-linecap:butt;stroke-linejoin:miter;stroke:rgb(0%,0%,0%);stroke-opacity:1;stroke-dasharray:2,2;stroke-miterlimit:4;" d="M 0 0 L 199 -0.000000000000012434 " transform="matrix(0.000000000000000061,-1,1,0.000000000000000061,11.5,164.5)"/>
<path style="fill:none;stroke-width:0.5;stroke-linecap:butt;stroke-linejoin:miter;stroke:rgb(0%,0%,0%);stroke-opacity:1;stroke-dasharray:2,2;stroke-miterlimit:4;" d="M 0 0 L 199 -0.000000000000012434 " transform="matrix(0.000000000000000061,-1,1,0.000000000000000061,11.5,164.5)"/>
<path style="fill:none;stroke-width:0.5;stroke-linecap:butt;stroke-linejoin:miter;stroke:rgb(0%,0%,0%);stroke-opacity:1;stroke-dasharray:2,2;stroke-miterlimit:4;" d="M 0 0 L 199 -0.000000000000012434 " transform="matrix(0.000000000000000061,-1,1,0.000000000000000061,11.5,164.5)"/>
<path style="fill:none;stroke-width:0.5;stroke-linecap:butt;stroke-linejoin:miter;stroke:rgb(0%,0%,0%);stroke-opacity:1;stroke-dasharray:2,2;stroke-miterlimit:4;" d="M 0 0 L 199 -0.000000000000012434 " transform="matrix(0.000000000000000061,-1,1,0.000000000000000061,11.5,164.5)"/>
<path style="fill:none;stroke-width:0.5;stroke-linecap:butt;stroke-linejoin:miter;stroke:rgb(0%,0%,0%);stroke-opacity:1;stroke-dasharray:2,2;stroke-miterlimit:4;" d="M 0 0 L 199 -0.000000000000012434 " transform="matrix(0.000000000000000061,-1,1,0.000000000000000061,11.5,164.5)"/>
<path style="fill:none;stroke-width:0.5;stroke-linecap:butt;stroke-linejoin:miter;stroke:rgb(0%,0%,0%);stroke-opacity:1;stroke-dasharray:2,2;stroke-miterlimit:4;" d="M 0 0 L 199 -0.000000000000012434 " transform="matrix(0.000000000000000061,-1,1,0.000000000000000061,11.5,164.5)"/>
<path style="fill:none;stroke-width:0.5;stroke-linecap:butt;stroke-linejoin:miter;stroke:rgb(0%,0%,0%);stroke-opacity:1;stroke-dasharray:2,2;stroke-miterlimit:4;" d="M 0 0 L 199 -0.000000000000012434 " transform="matrix(0.000000000000000061,-1,1,0.000000000000000061,11.5,164.5)"/>
<path style="fill:none;stroke-width:0.5;stroke-linecap:butt;stroke-linejoin:miter;stroke:rgb(0%,0%,0%);stroke-opacity:1;stroke-dasharray:2,2;stroke-miterlimit:4;" d="M 0 0 L 199 -0.000000000000012434 " transform="matrix(0.000000000000000061,-1,1,0.000000000000000061,11.5,164.5)"/>
<path style="fill:none;stroke-width:0.5;stroke-linecap:butt;stroke-linejoin:miter;stroke:rgb(0%,0%,0%);stroke-opacity:1;stroke-dasharray:2,2;stroke-miterlimit:4;" d="M 0 0 L 199 -0.000000000000012434 " transform="matrix(0.000000000000000061,-1,1,0.000000000000000061,11.5,164.5)"/>
<path style="fill:none;stroke-width:0.5;stroke-linecap:butt;stroke-linejoin:miter;stroke:rgb(0%,0%,0%);stroke-opacity:1;stroke-dasharray:2,2;stroke-miterlimit:4;" d="M 0 0 L 199 -0.000000000000012434 " transform="matrix(0.000000000000000061,-1,1,0.000000000000000061,11.5,164.5)"/>
<path style="fill:none;stroke-width:0.5;stroke-linecap:butt;stroke-linejoin:miter;stroke:rgb(0%,0%,0%);stroke-opacity:1;stroke-dasharray:2,2;stroke-miterlimit:4;" d="M 0 0 L 199 -0.000000000000012434 " transform="matrix(0.000000000000000061,-1,1,0.000000000000000061,11.5,164.5)"/>
<path style="fill:none;stroke-width:0.5;stroke-linecap:butt;stroke-linejoin:miter;stroke:rgb(0%,0%,0%);stroke-opacity:1;stroke-dasharray:2,2;stroke-miterlimit:4;" d="M 0 0 L 199 -0.000000000000012434 " transform="matrix(0.000000000000000061,-1,1,0.000000000000000061,11.5,164.5)"/>
<path style="fill:none;stroke-width:0.5;stroke-linecap:butt;stroke-linejoin:miter;stroke:rgb(0%,0%,0%);stroke-opacity:1;stroke-dasharray:2,2;stroke-miterlimit:4;" d="M 0 0 L 199 -0.000000000000012434 " transform="matrix(0.000000000000000061,-1,1,0.000000000000000061,11.5,164.5)"/>
<path style="fill:none;stroke-width:0.5;stroke-linecap:butt;stroke-linejoin:miter;stroke:rgb(0%,0%,0%);stroke-opacity:1;stroke-dasharray:2,2;stroke-miterlimit:4;" d="M 0 0 L 199 -0.000000000000012434 " transform="matrix(0.000000000000000061,-1,1,0.000000000000000061,11.5,164.5)"/>
<path style="fill:none;stroke-width:0.5;stroke-linecap:butt;stroke-linejoin:miter;stroke:rgb(0%,0%,0%);stroke-opacity:1;stroke-dasharray:2,2;stroke-miterlimit:4;" d="M 0 0 L 199 -0.000000000000012434 " transform="matrix(0.000000000000000061,-1,1,0.000000000000000061,11.5,164.5)"/>
<path style="fill:none;stroke-width:0.5;stroke-linecap:butt;stroke-linejoin:miter;stroke:rgb(0%,0%,0%);stroke-opacity:1;stroke-dasharray:2,2;stroke-miterlimit:4;" d="M 0 0 L 199 -0.000000000000012434 " transform="matrix(0.000000000000000061,-1,1,0.000000000000000061,11.5,164.5)"/>
<path style="fill:none;stroke-width:0.5;stroke-linecap:butt;stroke-linejoin:miter;stroke:rgb(0%,0%,0%);stroke-opacity:1;stroke-dasharray:2,2;stroke-miterlimit:4;" d="M 0 0 L 199 -0.000000000000012434 " transform="matrix(0.000000000000000061,-1,1,0.000000000000000061,11.5,164.5)"/>
<path style="fill:none;stroke-width:0.5;stroke-linecap:butt;stroke-linejoin:miter;stroke:rgb(0%,0%,0%);stroke-opacity:1;stroke-dasharray:2,2;stroke-miterlimit:4;" d="M 0 0 L 199 -0.000000000000012434 " transform="matrix(0.000000000000000061,-1,1,0.000000000000000061,11.5,164.5)"/>
<path style="fill:none;stroke-width:0.5;stroke-linecap:butt;stroke-linejoin:miter;stroke:rgb(0%,0%,0%);stroke-opacity:1;stroke-dasharray:2,2;stroke-miterlimit:4;" d="M 0 0 L 199 -0.000000000000012434 " transform="matrix(0.000000000000000061,-1,1,0.000000000000000061,11.5,164.5)"/>
<path style="fill:none;stroke-width:0.5;stroke-linecap:butt;stroke-linejoin:miter;stroke:rgb(0%,0%,0%);stroke-opacity:1;stroke-dasharray:2,2;stroke-miterlimit:4;" d="M 0 0 L 199 -0.000000000000012434 " transform="matrix(0.000000000000000061,-1,1,0.000000000000000061,11.5,164.5)"/>
<path style="fill:none;stroke-width:0.5;stroke-linecap:butt;stroke-linejoin:miter;stroke:rgb(0%,0%,0%);stroke-opacity:1;stroke-dasharray:2,2;stroke-miterlimit:4;" d="M 0 0 L 199 -0.000000000000012434 " transform="matrix(0.000000000000000061,-1,1,0.000000000000000061,11.5,164.5)"/>
<path style="fill:none;stroke-width:0.5;stroke-linecap:butt;stroke-linejoin:miter;stroke:rgb(0%,0%,0%);stroke-opacity:1;stroke-dasharray:2,2;stroke-miterlimit:4;" d="M 0 0 L 199 -0.000000000000012434 " transform="matrix(0.000000000000000061,-1,1,0.000000000000000061,11.5,164.5)"/>
<path style="fill:none;stroke-width:0.5;stroke-linecap:butt;stroke-linejoin:miter;stroke:rgb(0%,0%,0%);stroke-opacity:1;stroke-dasharray:2,2;stroke-miterlimit:4;" d="M 0 0 L 199 -0.000000000000012434 " transform="matrix(0.000000000000000061,-1,1,0.000000000000000061,11.5,164.5)"/>
</g>
</svg>
