<svg xmlns="http://www.w3.org/2000/svg" xmlns:xlink="http://www.w3.org/1999/xlink" width="9689.184pt" height="9749.28pt" viewBox="0 0 9689.184 9749.28" version="1.1">
<g id="surface358">
<path style=" stroke:none;fill-rule:evenodd;fill:rgb(0%,0%,0%);fill-opacity:1;" d="M 4844.597656 1149.933594 L 4844.597656 8471.820312 L 9481.304688 8471.820312 Z M 4844.597656 1149.933594 "/>
<path style="fill:none;stroke-width:7.5;stroke-linecap:round;stroke-linejoin:round;stroke:rgb(0%,0%,0%);stroke-opacity:1;stroke-miterlimit:3;" d="M -0.000742598 0.00146738 L -0.000742598 5511.110942 L 3490.001361 5511.110942 L -0.000742598 0.00146738 " transform="matrix(1.328569,0,0,1.328569,4844.598643,1149.931644)"/>
<path style=" stroke:none;fill-rule:evenodd;fill:rgb(0%,0%,0%);fill-opacity:1;" d="M 4844.597656 1149.933594 L 4844.597656 8471.820312 L 207.894531 8471.820312 Z M 4844.597656 1149.933594 "/>
<path style="fill:none;stroke-width:7.5;stroke-linecap:round;stroke-linejoin:round;stroke:rgb(0%,0%,0%);stroke-opacity:1;stroke-miterlimit:3;" d="M -0.000742598 0.00146738 L -0.000742598 5511.110942 L -3489.999906 5511.110942 L -0.000742598 0.00146738 " transform="matrix(1.328569,0,0,1.328569,4844.598643,1149.931644)"/>
<path style=" stroke:none;fill-rule:evenodd;fill:rgb(0%,0%,0%);fill-opacity:1;" d="M 4844.597656 1149.933594 L 9481.304688 8471.820312 L 207.894531 8471.820312 Z M 4844.597656 1149.933594 "/>
<path style="fill:none;stroke-width:7.5;stroke-linecap:round;stroke-linejoin:round;stroke:rgb(0%,0%,0%);stroke-opacity:1;stroke-miterlimit:3;" d="M -0.000742598 0.00146738 L 3490.001361 5511.110942 L -3489.999906 5511.110942 L -0.000742598 0.00146738 " transform="matrix(1.328569,0,0,1.328569,4844.598643,1149.931644)"/>
<path style=" stroke:none;fill-rule:evenodd;fill:rgb(0%,0%,0%);fill-opacity:1;" d="M 4844.597656 1149.933594 L 9481.304688 8471.820312 L 9481.304688 1149.933594 Z M 4844.597656 1149.933594 "/>
<path style="fill:none;stroke-width:7.5;stroke-linecap:round;stroke-linejoin:round;stroke:rgb(0%,0%,0%);stroke-opacity:1;stroke-miterlimit:3;" d="M -0.000742598 0.00146738 L 3490.001361 5511.110942 L 3490.001361 0.00146738 L -0.000742598 0.00146738 " transform="matrix(1.328569,0,0,1.328569,4844.598643,1149.931644)"/>
<path style=" stroke:none;fill-rule:evenodd;fill:rgb(0%,0%,0%);fill-opacity:1;" d="M 9481.304688 1149.933594 L 9481.304688 8471.820312 L 4844.597656 8471.820312 Z M 9481.304688 1149.933594 "/>
<path style="fill:none;stroke-width:7.5;stroke-linecap:round;stroke-linejoin:round;stroke:rgb(0%,0%,0%);stroke-opacity:1;stroke-miterlimit:3;" d="M 0.00136114 0.00146738 L 0.00136114 5511.110942 L -3490.000743 5511.110942 L 0.00136114 0.00146738 " transform="matrix(1.328569,0,0,1.328569,9481.302879,1149.931644)"/>
<path style=" stroke:none;fill-rule:evenodd;fill:rgb(0%,0%,0%);fill-opacity:1;" d="M 9481.304688 1149.933594 L 9481.304688 8471.820312 L 4844.597656 8471.820312 Z M 9481.304688 1149.933594 "/>
<path style="fill:none;stroke-width:7.5;stroke-linecap:round;stroke-linejoin:round;stroke:rgb(0%,0%,0%);stroke-opacity:1;stroke-miterlimit:3;" d="M 0.00136114 0.00146738 L 0.00136114 5511.110942 L -3490.000743 5511.110942 L 0.00136114 0.00146738 " transform="matrix(1.328569,0,0,1.328569,9481.302879,1149.931644)"/>
<path style=" stroke:none;fill-rule:evenodd;fill:rgb(0%,0%,0%);fill-opacity:1;" d="M 9481.304688 1149.933594 L 14118.007812 8471.820312 L 14118.007812 1149.933594 Z M 9481.304688 1149.933594 "/>
<path style="fill:none;stroke-width:7.5;stroke-linecap:round;stroke-linejoin:round;stroke:rgb(0%,0%,0%);stroke-opacity:1;stroke-miterlimit:3;" d="M 0.00136114 0.00146738 L 3490.000525 5511.110942 L 3490.000525 0.00146738 L 0.00136114 0.00146738 " transform="matrix(1.328569,0,0,1.328569,9481.302879,1149.931644)"/>
<path style=" stroke:none;fill-rule:evenodd;fill:rgb(0%,0%,0%);fill-opacity:1;" d="M 9481.304688 1149.933594 L 14118.007812 8471.820312 L 14118.007812 1149.933594 Z M 9481.304688 1149.933594 "/>
<path style="fill:none;stroke-width:7.5;stroke-linecap:round;stroke-linejoin:round;stroke:rgb(0%,0%,0%);stroke-opacity:1;stroke-miterlimit:3;" d="M 0.00136114 0.00146738 L 3490.000525 5511.110942 L 3490.000525 0.00146738 L 0.00136114 0.00146738 " transform="matrix(1.328569,0,0,1.328569,9481.302879,1149.931644)"/>
<path style=" stroke:none;fill-rule:evenodd;fill:rgb(0%,0%,0%);fill-opacity:1;" d="M 9481.304688 1149.933594 L 9481.304688 8471.820312 L 4844.597656 8471.820312 Z M 9481.304688 1149.933594 "/>
<path style="fill:none;stroke-width:7.5;stroke-linecap:round;stroke-linejoin:round;stroke:rgb(0%,0%,0%);stroke-opacity:1;stroke-miterlimit:3;" d="M 0.00136114 0.00146738 L 0.00136114 5511.110942 L -3490.000743 5511.110942 L 0.00136114 0.00146738 " transform="matrix(1.328569,0,0,1.328569,9481.302879,1149.931644)"/>
<path style=" stroke:none;fill-rule:evenodd;fill:rgb(0%,0%,0%);fill-opacity:1;" d="M 9481.304688 1149.933594 L 9481.304688 8471.820312 L 4844.597656 8471.820312 Z M 9481.304688 1149.933594 "/>
<path style="fill:none;stroke-width:7.5;stroke-linecap:round;stroke-linejoin:round;stroke:rgb(0%,0%,0%);stroke-opacity:1;stroke-miterlimit:3;" d="M 0.00136114 0.00146738 L 0.00136114 5511.110942 L -3490.000743 5511.110942 L 0.00136114 0.00146738 " transform="matrix(1.328569,0,0,1.328569,9481.302879,1149.931644)"/>
<path style=" stroke:none;fill-rule:evenodd;fill:rgb(0%,0%,0%);fill-opacity:1;" d="M 9481.304688 1149.933594 L 14118.007812 8471.820312 L 14118.007812 1149.933594 Z M 9481.304688 1149.933594 "/>
<path style="fill:none;stroke-width:7.5;stroke-linecap:round;stroke-linejoin:round;stroke:rgb(0%,0%,0%);stroke-opacity:1;stroke-miterlimit:3;" d="M 0.00136114 0.00146738 L 3490.000525 5511.110942 L 3490.000525 0.00146738 L 0.00136114 0.00146738 " transform="matrix(1.328569,0,0,1.328569,9481.302879,1149.931644)"/>
<path style=" stroke:none;fill-rule:evenodd;fill:rgb(0%,0%,0%);fill-opacity:1;" d="M 9481.304688 1149.933594 L 14118.007812 8471.820312 L 14118.007812 1149.933594 Z M 9481.304688 1149.933594 "/>
<path style="fill:none;stroke-width:7.5;stroke-linecap:round;stroke-linejoin:round;stroke:rgb(0%,0%,0%);stroke-opacity:1;stroke-miterlimit:3;" d="M 0.00136114 0.00146738 L 3490.000525 5511.110942 L 3490.000525 0.00146738 L 0.00136114 0.00146738 " transform="matrix(1.328569,0,0,1.328569,9481.302879,1149.931644)"/>
<path style=" stroke:none;fill-rule:evenodd;fill:rgb(0%,0%,0%);fill-opacity:1;" d="M 9481.304688 1149.933594 L 9481.304688 8471.820312 L 4844.597656 8471.820312 Z M 9481.304688 1149.933594 "/>
<path style="fill:none;stroke-width:7.5;stroke-linecap:round;stroke-linejoin:round;stroke:rgb(0%,0%,0%);stroke-opacity:1;stroke-miterlimit:3;" d="M 0.00136114 0.00146738 L 0.00136114 5511.110942 L -3490.000743 5511.110942 L 0.00136114 0.00146738 " transform="matrix(1.328569,0,0,1.328569,9481.302879,1149.931644)"/>
<path style=" stroke:none;fill-rule:evenodd;fill:rgb(0%,0%,0%);fill-opacity:1;" d="M 9481.304688 1149.933594 L 9481.304688 8471.820312 L 4844.597656 8471.820312 Z M 9481.304688 1149.933594 "/>
<path style="fill:none;stroke-width:7.5;stroke-linecap:round;stroke-linejoin:round;stroke:rgb(0%,0%,0%);stroke-opacity:1;stroke-miterlimit:3;" d="M 0.00136114 0.00146738 L 0.00136114 5511.110942 L -3490.000743 5511.110942 L 0.00136114 0.00146738 " transform="matrix(1.328569,0,0,1.328569,9481.302879,1149.931644)"/>
<path style=" stroke:none;fill-rule:evenodd;fill:rgb(0%,0%,0%);fill-opacity:1;" d="M 9481.304688 1149.933594 L 14118.007812 8471.820312 L 14118.007812 1149.933594 Z M 9481.304688 1149.933594 "/>
<path style="fill:none;stroke-width:7.5;stroke-linecap:round;stroke-linejoin:round;stroke:rgb(0%,0%,0%);stroke-opacity:1;stroke-miterlimit:3;" d="M 0.00136114 0.00146738 L 3490.000525 5511.110942 L 3490.000525 0.00146738 L 0.00136114 0.00146738 " transform="matrix(1.328569,0,0,1.328569,9481.302879,1149.931644)"/>
<path style=" stroke:none;fill-rule:evenodd;fill:rgb(0%,0%,0%);fill-opacity:1;" d="M 9481.304688 1149.933594 L 14118.007812 8471.820312 L 14118.007812 1149.933594 Z M 9481.304688 1149.933594 "/>
<path style="fill:none;stroke-width:7.5;stroke-linecap:round;stroke-linejoin:round;stroke:rgb(0%,0%,0%);stroke-opacity:1;stroke-miterlimit:3;" d="M 0.00136114 0.00146738 L 3490.000525 5511.110942 L 3490.000525 0.00146738 L 0.00136114 0.00146738 " transform="matrix(1.328569,0,0,1.328569,9481.302879,1149.931644)"/>
</g>
</svg>
