<svg xmlns="http://www.w3.org/2000/svg" xmlns:xlink="http://www.w3.org/1999/xlink" width="1000pt" height="1000pt" viewBox="0 0 1000 1000" version="1.1">
<defs>
<clipPath id="clip1">
  <path d="M 0 0 L 376 0 L 376 626 L 0 626 Z M 0 0 "/>
</clipPath>
<clipPath id="clip2">
  <path d="M 375 0 L 1000 375 L 625 1000 L 0 625 Z M 375 0 "/>
</clipPath>
<clipPath id="clip3">
  <path d="M 624 374 L 1000 374 L 1000 1000 L 624 1000 Z M 624 374 "/>
</clipPath>
<clipPath id="clip4">
  <path d="M 375 0 L 1000 375 L 625 1000 L 0 625 Z M 375 0 "/>
</clipPath>
<clipPath id="clip5">
  <path d="M 374 0 L 1000 0 L 1000 376 L 374 376 Z M 374 0 "/>
</clipPath>
<clipPath id="clip6">
  <path d="M 375 0 L 1000 375 L 625 1000 L 0 625 Z M 375 0 "/>
</clipPath>
<clipPath id="clip7">
  <path d="M 624 374 L 1000 374 L 1000 1000 L 624 1000 Z M 624 374 "/>
</clipPath>
<clipPath id="clip8">
  <path d="M 375 0 L 1000 375 L 625 1000 L 0 625 Z M 375 0 "/>
</clipPath>
<clipPath id="clip9">
  <path d="M 0 624 L 626 624 L 626 1000 L 0 1000 Z M 0 624 "/>
</clipPath>
<clipPath id="clip10">
  <path d="M 375 0 L 1000 375 L 625 1000 L 0 625 Z M 375 0 "/>
</clipPath>
<clipPath id="clip11">
  <path d="M 0 0 L 376 0 L 376 626 L 0 626 Z M 0 0 "/>
</clipPath>
<clipPath id="clip12">
  <path d="M 375 0 L 1000 375 L 625 1000 L 0 625 Z M 375 0 "/>
</clipPath>
<clipPath id="clip13">
  <path d="M 624 374 L 1000 374 L 1000 1000 L 624 1000 Z M 624 374 "/>
</clipPath>
<clipPath id="clip14">
  <path d="M 375 0 L 1000 375 L 625 1000 L 0 625 Z M 375 0 "/>
</clipPath>
<clipPath id="clip15">
  <path d="M 374 0 L 1000 0 L 1000 376 L 374 376 Z M 374 0 "/>
</clipPath>
<clipPath id="clip16">
  <path d="M 375 0 L 1000 375 L 625 1000 L 0 625 Z M 375 0 "/>
</clipPath>
<clipPath id="clip17">
  <path d="M 624 374 L 1000 374 L 1000 1000 L 624 1000 Z M 624 374 "/>
</clipPath>
<clipPath id="clip18">
  <path d="M 375 0 L 1000 375 L 625 1000 L 0 625 Z M 375 0 "/>
</clipPath>
<clipPath id="clip19">
  <path d="M 0 624 L 626 624 L 626 1000 L 0 1000 Z M 0 624 "/>
</clipPath>
<clipPath id="clip20">
  <path d="M 375 0 L 1000 375 L 625 1000 L 0 625 Z M 375 0 "/>
</clipPath>
<clipPath id="clip21">
  <path d="M 0 0 L 376 0 L 376 626 L 0 626 Z M 0 0 "/>
</clipPath>
<clipPath id="clip22">
  <path d="M 375 0 L 1000 375 L 625 1000 L 0 625 Z M 375 0 "/>
</clipPath>
<clipPath id="clip23">
  <path d="M 624 374 L 1000 374 L 1000 1000 L 624 1000 Z M 624 374 "/>
</clipPath>
<clipPath id="clip24">
  <path d="M 375 0 L 1000 375 L 625 1000 L 0 625 Z M 375 0 "/>
</clipPath>
<clipPath id="clip25">
  <path d="M 374 0 L 1000 0 L 1000 376 L 374 376 Z M 374 0 "/>
</clipPath>
<clipPath id="clip26">
  <path d="M 375 0 L 1000 375 L 625 1000 L 0 625 Z M 375 0 "/>
</clipPath>
<clipPath id="clip27">
  <path d="M 624 374 L 1000 374 L 1000 1000 L 624 1000 Z M 624 374 "/>
</clipPath>
<clipPath id="clip28">
  <path d="M 375 0 L 1000 375 L 625 1000 L 0 625 Z M 375 0 "/>
</clipPath>
<clipPath id="clip29">
  <path d="M 0 624 L 626 624 L 626 1000 L 0 1000 Z M 0 624 "/>
</clipPath>
<clipPath id="clip30">
  <path d="M 375 0 L 1000 375 L 625 1000 L 0 625 Z M 375 0 "/>
</clipPath>
<clipPath id="clip31">
  <path d="M 0 0 L 376 0 L 376 626 L 0 626 Z M 0 0 "/>
</clipPath>
<clipPath id="clip32">
  <path d="M 375 0 L 1000 375 L 625 1000 L 0 625 Z M 375 0 "/>
</clipPath>
<clipPath id="clip33">
  <path d="M 624 374 L 1000 374 L 1000 1000 L 624 1000 Z M 624 374 "/>
</clipPath>
<clipPath id="clip34">
  <path d="M 375 0 L 1000 375 L 625 1000 L 0 625 Z M 375 0 "/>
</clipPath>
<clipPath id="clip35">
  <path d="M 374 0 L 1000 0 L 1000 376 L 374 376 Z M 374 0 "/>
</clipPath>
<clipPath id="clip36">
  <path d="M 375 0 L 1000 375 L 625 1000 L 0 625 Z M 375 0 "/>
</clipPath>
<clipPath id="clip37">
  <path d="M 624 374 L 1000 374 L 1000 1000 L 624 1000 Z M 624 374 "/>
</clipPath>
<clipPath id="clip38">
  <path d="M 375 0 L 1000 375 L 625 1000 L 0 625 Z M 375 0 "/>
</clipPath>
<clipPath id="clip39">
  <path d="M 0 624 L 626 624 L 626 1000 L 0 1000 Z M 0 624 "/>
</clipPath>
<clipPath id="clip40">
  <path d="M 375 0 L 1000 375 L 625 1000 L 0 625 Z M 375 0 "/>
</clipPath>
<clipPath id="clip41">
  <path d="M 0 0 L 376 0 L 376 626 L 0 626 Z M 0 0 "/>
</clipPath>
<clipPath id="clip42">
  <path d="M 375 0 L 1000 375 L 625 1000 L 0 625 Z M 375 0 "/>
</clipPath>
<clipPath id="clip43">
  <path d="M 624 374 L 1000 374 L 1000 1000 L 624 1000 Z M 624 374 "/>
</clipPath>
<clipPath id="clip44">
  <path d="M 375 0 L 1000 375 L 625 1000 L 0 625 Z M 375 0 "/>
</clipPath>
<clipPath id="clip45">
  <path d="M 374 0 L 1000 0 L 1000 376 L 374 376 Z M 374 0 "/>
</clipPath>
<clipPath id="clip46">
  <path d="M 375 0 L 1000 375 L 625 1000 L 0 625 Z M 375 0 "/>
</clipPath>
</defs>
<g id="surface304">
<path style="fill:none;stroke-width:1;stroke-linecap:round;stroke-linejoin:round;stroke:rgb(0%,0%,0%);stroke-opacity:1;stroke-miterlimit:10;" d="M 375 0 L 1000 375 L 625 1000 L 0 625 Z M 375 0 "/>
<g clip-path="url(#clip1)" clip-rule="nonzero">
<g clip-path="url(#clip2)" clip-rule="nonzero">
<path style="fill:none;stroke-width:1;stroke-linecap:round;stroke-linejoin:round;stroke:rgb(0%,0%,0%);stroke-opacity:1;stroke-miterlimit:10;" d="M 0 625 L 375 625 L 375 0 Z M 0 625 "/>
</g>
</g>
<g clip-path="url(#clip3)" clip-rule="nonzero">
<g clip-path="url(#clip4)" clip-rule="nonzero">
<path style="fill:none;stroke-width:1;stroke-linecap:round;stroke-linejoin:round;stroke:rgb(0%,0%,0%);stroke-opacity:1;stroke-miterlimit:10;" d="M 625 1000 L 625 375 L 1000 375 Z M 625 1000 "/>
</g>
</g>
<g clip-path="url(#clip5)" clip-rule="nonzero">
<g clip-path="url(#clip6)" clip-rule="nonzero">
<path style="fill:none;stroke-width:1;stroke-linecap:round;stroke-linejoin:round;stroke:rgb(0%,0%,0%);stroke-opacity:1;stroke-miterlimit:10;" d="M 1000 375 L 375 375 L 375 0 Z M 1000 375 "/>
</g>
</g>
<g clip-path="url(#clip7)" clip-rule="nonzero">
<g clip-path="url(#clip8)" clip-rule="nonzero">
<path style="fill:none;stroke-width:1;stroke-linecap:round;stroke-linejoin:round;stroke:rgb(0%,0%,0%);stroke-opacity:1;stroke-miterlimit:10;" d="M 1000 375 L 625 1000 L 625 625 Z M 1000 375 "/>
</g>
</g>
<g clip-path="url(#clip9)" clip-rule="nonzero">
<g clip-path="url(#clip10)" clip-rule="nonzero">
<path style="fill:none;stroke-width:1;stroke-linecap:round;stroke-linejoin:round;stroke:rgb(0%,0%,0%);stroke-opacity:1;stroke-miterlimit:10;" d="M 625 1000 L 0 625 L 375 625 Z M 625 1000 "/>
</g>
</g>
<g clip-path="url(#clip11)" clip-rule="nonzero">
<g clip-path="url(#clip12)" clip-rule="nonzero">
<path style="fill:none;stroke-width:1;stroke-linecap:round;stroke-linejoin:round;stroke:rgb(0%,0%,0%);stroke-opacity:1;stroke-miterlimit:10;" d="M 0 625 L 375 625 L 375 0 Z M 0 625 "/>
</g>
</g>
<g clip-path="url(#clip13)" clip-rule="nonzero">
<g clip-path="url(#clip14)" clip-rule="nonzero">
<path style="fill:none;stroke-width:1;stroke-linecap:round;stroke-linejoin:round;stroke:rgb(0%,0%,0%);stroke-opacity:1;stroke-miterlimit:10;" d="M 625 1000 L 625 375 L 1000 375 Z M 625 1000 "/>
</g>
</g>
<g clip-path="url(#clip15)" clip-rule="nonzero">
<g clip-path="url(#clip16)" clip-rule="nonzero">
<path style="fill:none;stroke-width:1;stroke-linecap:round;stroke-linejoin:round;stroke:rgb(0%,0%,0%);stroke-opacity:1;stroke-miterlimit:10;" d="M 1000 375 L 375 375 L 375 0 Z M 1000 375 "/>
</g>
</g>
<g clip-path="url(#clip17)" clip-rule="nonzero">
<g clip-path="url(#clip18)" clip-rule="nonzero">
<path style="fill:none;stroke-width:1;stroke-linecap:round;stroke-linejoin:round;stroke:rgb(0%,0%,0%);stroke-opacity:1;stroke-miterlimit:10;" d="M 1000 375 L 625 1000 L 625 625 Z M 1000 375 "/>
</g>
</g>
<g clip-path="url(#clip19)" clip-rule="nonzero">
<g clip-path="url(#clip20)" clip-rule="nonzero">
<path style="fill:none;stroke-width:1;stroke-linecap:round;stroke-linejoin:round;stroke:rgb(0%,0%,0%);stroke-opacity:1;stroke-miterlimit:10;" d="M 625 1000 L 0 625 L 375 625 Z M 625 1000 "/>
</g>
</g>
<g clip-path="url(#clip21)" clip-rule="nonzero">
<g clip-path="url(#clip22)" clip-rule="nonzero">
<path style="fill:none;stroke-width:1;stroke-linecap:round;stroke-linejoin:round;stroke:rgb(0%,0%,0%);stroke-opacity:1;stroke-miterlimit:10;" d="M 0 625 L 375 625 L 375 0 Z M 0 625 "/>
</g>
</g>
<g clip-path="url(#clip23)" clip-rule="nonzero">
<g clip-path="url(#clip24)" clip-rule="nonzero">
<path style="fill:none;stroke-width:1;stroke-linecap:round;stroke-linejoin:round;stroke:rgb(0%,0%,0%);stroke-opacity:1;stroke-miterlimit:10;" d="M 625 1000 L 625 375 L 1000 375 Z M 625 1000 "/>
</g>
</g>
<g clip-path="url(#clip25)" clip-rule="nonzero">
<g clip-path="url(#clip26)" clip-rule="nonzero">
<path style="fill:none;stroke-width:1;stroke-linecap:round;stroke-linejoin:round;stroke:rgb(0%,0%,0%);stroke-opacity:1;stroke-miterlimit:10;" d="M 1000 375 L 375 375 L 375 0 Z M 1000 375 "/>
</g>
</g>
<g clip-path="url(#clip27)" clip-rule="nonzero">
<g clip-path="url(#clip28)" clip-rule="nonzero">
<path style="fill:none;stroke-width:1;stroke-linecap:round;stroke-linejoin:round;stroke:rgb(0%,0%,0%);stroke-opacity:1;stroke-miterlimit:10;" d="M 1000 375 L 625 1000 L 625 625 Z M 1000 375 "/>
</g>
</g>
<g clip-path="url(#clip29)" clip-rule="nonzero">
<g clip-path="url(#clip30)" clip-rule="nonzero">
<path style="fill:none;stroke-width:1;stroke-linecap:round;stroke-linejoin:round;stroke:rgb(0%,0%,0%);stroke-opacity:1;stroke-miterlimit:10;" d="M 625 1000 L 0 625 L 375 625 Z M 625 1000 "/>
</g>
</g>
<g clip-path="url(#clip31)" clip-rule="nonzero">
<g clip-path="url(#clip32)" clip-rule="nonzero">
<path style="fill:none;stroke-width:1;stroke-linecap:round;stroke-linejoin:round;stroke:rgb(0%,0%,0%);stroke-opacity:1;stroke-miterlimit:10;" d="M 0 625 L 375 625 L 375 0 Z M 0 625 "/>
</g>
</g>
<g clip-path="url(#clip33)" clip-rule="nonzero">
<g clip-path="url(#clip34)" clip-rule="nonzero">
<path style="fill:none;stroke-width:1;stroke-linecap:round;stroke-linejoin:round;stroke:rgb(0%,0%,0%);stroke-opacity:1;stroke-miterlimit:10;" d="M 625 1000 L 625 375 L 1000 375 Z M 625 1000 "/>
</g>
</g>
<g clip-path="url(#clip35)" clip-rule="nonzero">
<g clip-path="url(#clip36)" clip-rule="nonzero">
<path style="fill:none;stroke-width:1;stroke-linecap:round;stroke-linejoin:round;stroke:rgb(0%,0%,0%);stroke-opacity:1;stroke-miterlimit:10;" d="M 1000 375 L 375 375 L 375 0 Z M 1000 375 "/>
</g>
</g>
<g clip-path="url(#clip37)" clip-rule="nonzero">
<g clip-path="url(#clip38)" clip-rule="nonzero">
<path style="fill:none;stroke-width:1;stroke-linecap:round;stroke-linejoin:round;stroke:rgb(0%,0%,0%);stroke-opacity:1;stroke-miterlimit:10;" d="M 1000 375 L 625 1000 L 625 625 Z M 1000 375 "/>
</g>
</g>
<g clip-path="url(#clip39)" clip-rule="nonzero">
<g clip-path="url(#clip40)" clip-rule="nonzero">
<path style="fill:none;stroke-width:1;stroke-linecap:round;stroke-linejoin:round;stroke:rgb(0%,0%,0%);stroke-opacity:1;stroke-miterlimit:10;" d="M 625 1000 L 0 625 L 375 625 Z M 625 1000 "/>
</g>
</g>
<g clip-path="url(#clip41)" clip-rule="nonzero">
<g clip-path="url(#clip42)" clip-rule="nonzero">
<path style="fill:none;stroke-width:1;stroke-linecap:round;stroke-linejoin:round;stroke:rgb(0%,0%,0%);stroke-opacity:1;stroke-miterlimit:10;" d="M 0 625 L 375 625 L 375 0 Z M 0 625 "/>
</g>
</g>
<g clip-path="url(#clip43)" clip-rule="nonzero">
<g clip-path="url(#clip44)" clip-rule="nonzero">
<path style="fill:none;stroke-width:1;stroke-linecap:round;stroke-linejoin:round;stroke:rgb(0%,0%,0%);stroke-opacity:1;stroke-miterlimit:10;" d="M 625 1000 L 625 375 L 1000 375 Z M 625 1000 "/>
</g>
</g>
<g clip-path="url(#clip45)" clip-rule="nonzero">
<g clip-path="url(#clip46)" clip-rule="nonzero">
<path style="fill:none;stroke-width:1;stroke-linecap:round;stroke-linejoin:round;stroke:rgb(0%,0%,0%);stroke-opacity:1;stroke-miterlimit:10;" d="M 1000 375 L 375 375 L 375 0 Z M 1000 375 "/>
</g>
</g>
</g>
</svg>
